<?xml version="1.0" encoding="UTF-8"?>
<svg id="Layer_2" data-name="Layer 2" xmlns="http://www.w3.org/2000/svg" xmlns:xlink="http://www.w3.org/1999/xlink" viewBox="0 0 24.06 21.62">
  <defs>
    <style>
      .cls-1 {
        fill: #fff9ef;
      }

      .cls-2 {
        clip-path: url(#clippath-2);
      }

      .cls-3 {
        isolation: isolate;
      }

      .cls-4 {
        clip-path: url(#clippath-6);
      }

      .cls-5 {
        fill: #6237ac;
      }

      .cls-6 {
        fill: #f7ed8f;
      }

      .cls-7 {
        clip-path: url(#clippath-7);
      }

      .cls-8 {
        clip-path: url(#clippath-1);
      }

      .cls-9 {
        clip-path: url(#clippath-4);
      }

      .cls-10 {
        fill: #825fbd;
      }

      .cls-11 {
        clip-path: url(#clippath);
      }

      .cls-12 {
        fill: #a187cd;
      }

      .cls-13 {
        clip-path: url(#clippath-3);
      }

      .cls-14 {
        fill: #6b686b;
      }

      .cls-15 {
        fill: #4c474b;
      }

      .cls-16 {
        clip-path: url(#clippath-5);
      }

      .cls-17 {
        fill: #282328;
      }
    </style>
    <clipPath id="clippath">
      <path class="cls-14" d="M22.95,14.46l.21,.12c-.15-.09-.36-.08-.6,.06l-.21-.12c.23-.13,.44-.15,.6-.06Z"/>
    </clipPath>
    <clipPath id="clippath-1">
      <path class="cls-17" d="M21.97,16.63l-.21-.12c-.15-.09-.24-.27-.24-.54,0-.53,.37-1.18,.84-1.45l.21,.12c-.46,.27-.84,.92-.84,1.45,0,.26,.09,.45,.24,.54Z"/>
    </clipPath>
    <clipPath id="clippath-2">
      <path class="cls-14" d="M17.43,17.68l.21,.12c-.15-.09-.36-.08-.6,.06l-.21-.12c.23-.13,.44-.15,.6-.06Z"/>
    </clipPath>
    <clipPath id="clippath-3">
      <path class="cls-17" d="M16.46,19.86l-.21-.12c-.15-.09-.24-.27-.24-.54,0-.53,.37-1.18,.84-1.45l.21,.12c-.46,.27-.84,.92-.84,1.45,0,.26,.09,.45,.24,.54Z"/>
    </clipPath>
    <clipPath id="clippath-4">
      <path class="cls-14" d="M10.57,17.97l.6-.35c.25-.14,.59-.12,.97,.09l-.6,.35c-.38-.22-.72-.24-.97-.09Z"/>
    </clipPath>
    <clipPath id="clippath-5">
      <path class="cls-14" d="M13.1,20.94l-.6,.35c.24-.14,.4-.44,.4-.87,0-.86-.61-1.92-1.36-2.35l.6-.35c.75,.43,1.36,1.49,1.36,2.35,0,.43-.15,.73-.4,.87Z"/>
    </clipPath>
    <clipPath id="clippath-6">
      <path class="cls-14" d="M.62,12.23l.6-.35c.25-.14,.59-.12,.97,.09l-.6,.35c-.38-.22-.72-.24-.97-.09Z"/>
    </clipPath>
    <clipPath id="clippath-7">
      <path class="cls-14" d="M3.15,15.21l-.6,.35c.24-.14,.4-.44,.4-.87,0-.86-.61-1.92-1.36-2.35l.6-.35c.75,.43,1.36,1.49,1.36,2.35,0,.43-.15,.73-.4,.87Z"/>
    </clipPath>
  </defs>
  <g id="Layer_1-2" data-name="Layer 1">
    <g>
      <polygon class="cls-12" points="2.27 9.39 10.77 4.45 8.51 3.15 .01 8.08 2.27 9.39"/>
      <polygon class="cls-5" points="10.66 14.23 19.16 9.3 17.62 3.95 9.13 8.89 10.66 14.23"/>
      <polygon class="cls-17" points="11 13.74 18.68 9.28 17.29 4.44 9.61 8.91 11 13.74"/>
      <polygon class="cls-12" points="9.13 8.89 17.62 3.95 10.78 0 2.28 4.94 9.13 8.89"/>
      <polygon class="cls-12" points="14.87 17.76 23.36 12.83 19.16 9.3 10.66 14.23 14.87 17.76"/>
      <polygon class="cls-5" points="15.57 21.62 24.06 16.69 23.36 12.83 14.87 17.76 15.57 21.62"/>
      <polygon class="cls-10" points="2.28 4.94 2.27 9.39 .01 8.08 0 12.63 15.57 21.62 14.87 17.76 10.66 14.23 9.13 8.89 2.28 4.94"/>
      <polygon class="cls-17" points="6.59 11.4 6.59 8.1 8.81 9.39 9.95 13.35 6.59 11.4"/>
      <g>
        <g>
          <path class="cls-14" d="M22.95,14.46l.21,.12c-.15-.09-.36-.08-.6,.06l-.21-.12c.23-.13,.44-.15,.6-.06Z"/>
          <g class="cls-11">
            <g class="cls-3">
              <path class="cls-14" d="M22.56,14.64l-.21-.12c.15-.09,.29-.12,.41-.11l.21,.12c-.12,0-.26,.03-.41,.11h0Z"/>
              <path class="cls-14" d="M22.97,14.53l-.21-.12c.07,0,.13,.02,.19,.06l.21,.12c-.06-.03-.12-.05-.19-.06h0Z"/>
            </g>
          </g>
        </g>
        <g>
          <path class="cls-17" d="M21.97,16.63l-.21-.12c-.15-.09-.24-.27-.24-.54,0-.53,.37-1.18,.84-1.45l.21,.12c-.46,.27-.84,.92-.84,1.45,0,.26,.09,.45,.24,.54Z"/>
          <g class="cls-8">
            <g>
              <path class="cls-14" d="M21.97,16.63l-.21-.12c-.15-.09-.24-.27-.24-.54,0-.17,.04-.36,.11-.54l.21,.12c-.07,.18-.11,.37-.11,.54,0,.26,.09,.45,.24,.54h0Z"/>
              <path class="cls-14" d="M21.84,15.55l-.21-.12c.05-.12,.11-.25,.18-.36l.21,.12c-.07,.11-.14,.24-.18,.36h0Z"/>
              <path class="cls-14" d="M22.02,15.19l-.21-.12c.15-.23,.34-.43,.54-.55l.21,.12c-.21,.12-.4,.32-.54,.55h0Z"/>
            </g>
          </g>
        </g>
        <path class="cls-15" d="M22.56,14.64c.46-.27,.84-.05,.84,.48,0,.53-.37,1.18-.84,1.45-.46,.27-.84,.05-.84-.48,0-.53,.37-1.18,.84-1.45Z"/>
        <path class="cls-6" d="M22.56,14.89c.35-.2,.63-.04,.63,.36,0,.4-.28,.88-.62,1.08-.35,.2-.63,.04-.63-.36,0-.4,.28-.88,.63-1.08Z"/>
      </g>
      <g>
        <g>
          <path class="cls-14" d="M17.43,17.68l.21,.12c-.15-.09-.36-.08-.6,.06l-.21-.12c.23-.13,.44-.15,.6-.06Z"/>
          <g class="cls-2">
            <g class="cls-3">
              <path class="cls-14" d="M17.05,17.87l-.21-.12c.15-.09,.29-.12,.41-.11l.21,.12c-.12,0-.26,.03-.41,.11h0Z"/>
              <path class="cls-14" d="M17.46,17.75l-.21-.12c.07,0,.13,.02,.19,.06l.21,.12c-.06-.03-.12-.05-.19-.06h0Z"/>
            </g>
          </g>
        </g>
        <g>
          <path class="cls-17" d="M16.46,19.86l-.21-.12c-.15-.09-.24-.27-.24-.54,0-.53,.37-1.18,.84-1.45l.21,.12c-.46,.27-.84,.92-.84,1.45,0,.26,.09,.45,.24,.54Z"/>
          <g class="cls-13">
            <g>
              <path class="cls-14" d="M16.46,19.86l-.21-.12c-.15-.09-.24-.27-.24-.54,0-.17,.04-.36,.11-.54l.21,.12c-.07,.18-.11,.37-.11,.54,0,.26,.09,.45,.24,.54h0Z"/>
              <path class="cls-14" d="M16.32,18.78l-.21-.12c.05-.12,.11-.25,.18-.36l.21,.12c-.07,.11-.14,.24-.18,.36h0Z"/>
              <path class="cls-14" d="M16.51,18.41l-.21-.12c.15-.23,.34-.43,.54-.55l.21,.12c-.21,.12-.4,.32-.54,.55h0Z"/>
            </g>
          </g>
        </g>
        <path class="cls-15" d="M17.05,17.87c.46-.27,.84-.05,.84,.48,0,.53-.37,1.18-.84,1.45-.46,.27-.84,.05-.84-.48,0-.53,.37-1.18,.84-1.45Z"/>
        <path class="cls-6" d="M17.05,18.11c.35-.2,.63-.04,.63,.36,0,.4-.28,.88-.62,1.08-.35,.2-.63,.04-.63-.36,0-.4,.28-.88,.63-1.08Z"/>
      </g>
      <g>
        <g>
          <path class="cls-14" d="M10.57,17.97l.6-.35c.25-.14,.59-.12,.97,.09l-.6,.35c-.38-.22-.72-.24-.97-.09Z"/>
          <g class="cls-9">
            <g class="cls-3">
              <path class="cls-14" d="M10.57,17.97l.6-.35c.12-.07,.26-.1,.42-.09l-.6,.35c-.16-.01-.3,.02-.42,.09h0Z"/>
              <path class="cls-14" d="M10.99,17.88l.6-.35c.09,0,.19,.03,.29,.06l-.6,.35c-.1-.04-.2-.06-.29-.06h0Z"/>
              <path class="cls-14" d="M11.27,17.94l.6-.35c.09,.03,.17,.07,.26,.12l-.6,.35c-.09-.05-.18-.09-.26-.12h0Z"/>
            </g>
          </g>
        </g>
        <g>
          <path class="cls-14" d="M13.1,20.94l-.6,.35c.24-.14,.4-.44,.4-.87,0-.86-.61-1.92-1.36-2.35l.6-.35c.75,.43,1.36,1.49,1.36,2.35,0,.43-.15,.73-.4,.87Z"/>
          <g class="cls-16">
            <g class="cls-3">
              <path class="cls-14" d="M11.54,18.07l.6-.35s0,0,.01,0l-.6,.35s0,0-.01,0h0Z"/>
              <path class="cls-14" d="M11.55,18.07l.6-.35c.1,.06,.2,.13,.3,.21l-.6,.35c-.09-.08-.19-.15-.3-.21h0Z"/>
              <path class="cls-14" d="M11.85,18.28l.6-.35c.1,.08,.2,.18,.29,.28l-.6,.35c-.09-.1-.19-.2-.29-.28h0Z"/>
              <path class="cls-14" d="M12.13,18.57l.6-.35c.21,.24,.39,.53,.53,.83l-.6,.35c-.13-.3-.31-.59-.53-.83h0Z"/>
              <path class="cls-14" d="M12.66,19.4l.6-.35c.05,.11,.09,.22,.13,.34l-.6,.35c-.03-.11-.08-.23-.13-.34h0Z"/>
              <path class="cls-14" d="M12.79,19.73l.6-.35c.04,.12,.06,.24,.08,.36l-.6,.35c-.02-.12-.05-.24-.08-.36h0Z"/>
              <path class="cls-14" d="M12.87,20.09l.6-.35c.02,.11,.03,.22,.03,.33h0s-.6,.35-.6,.35h0c0-.11,0-.22-.03-.33h0Z"/>
              <path class="cls-14" d="M12.9,20.42l.6-.35c0,.12-.01,.23-.04,.33l-.6,.35c.02-.1,.03-.21,.04-.33h0Z"/>
              <path class="cls-14" d="M12.86,20.75l.6-.35c-.06,.26-.19,.44-.36,.54l-.6,.35c.18-.1,.3-.29,.36-.54h0Z"/>
            </g>
          </g>
        </g>
        <path class="cls-17" d="M11.54,18.07c.75,.43,1.36,1.49,1.36,2.35,0,.86-.61,1.21-1.37,.78-.75-.43-1.36-1.49-1.36-2.35,0-.86,.61-1.21,1.37-.78Z"/>
        <path class="cls-1" d="M11.54,18.6c.5,.29,.9,.98,.9,1.55,0,.57-.41,.8-.9,.51-.5-.29-.9-.98-.9-1.55,0-.57,.41-.8,.9-.52Z"/>
      </g>
      <g>
        <g>
          <path class="cls-14" d="M.62,12.23l.6-.35c.25-.14,.59-.12,.97,.09l-.6,.35c-.38-.22-.72-.24-.97-.09Z"/>
          <g class="cls-4">
            <g class="cls-3">
              <path class="cls-14" d="M.62,12.23l.6-.35c.12-.07,.26-.1,.42-.09l-.6,.35c-.16-.01-.3,.02-.42,.09H.62Z"/>
              <path class="cls-14" d="M1.04,12.14l.6-.35c.09,0,.19,.03,.29,.06l-.6,.35c-.1-.04-.2-.06-.29-.06h0Z"/>
              <path class="cls-14" d="M1.32,12.21l.6-.35c.09,.03,.17,.07,.26,.12l-.6,.35c-.09-.05-.18-.09-.26-.12h0Z"/>
            </g>
          </g>
        </g>
        <g>
          <path class="cls-14" d="M3.15,15.21l-.6,.35c.24-.14,.4-.44,.4-.87,0-.86-.61-1.92-1.36-2.35l.6-.35c.75,.43,1.36,1.49,1.36,2.35,0,.43-.15,.73-.4,.87Z"/>
          <g class="cls-7">
            <g class="cls-3">
              <path class="cls-14" d="M1.59,12.33l.6-.35s0,0,.01,0l-.6,.35s0,0-.01,0h0Z"/>
              <path class="cls-14" d="M1.6,12.34l.6-.35c.1,.06,.2,.13,.3,.21l-.6,.35c-.09-.08-.19-.15-.3-.21h0Z"/>
              <path class="cls-14" d="M1.89,12.55l.6-.35c.1,.08,.2,.18,.29,.28l-.6,.35c-.09-.1-.19-.2-.29-.28h0Z"/>
              <path class="cls-14" d="M2.18,12.83l.6-.35c.21,.24,.39,.53,.53,.83l-.6,.35c-.13-.3-.31-.59-.53-.83h0Z"/>
              <path class="cls-14" d="M2.71,13.66l.6-.35c.05,.11,.09,.22,.13,.34l-.6,.35c-.03-.11-.08-.23-.13-.34h0Z"/>
              <path class="cls-14" d="M2.84,14l.6-.35c.04,.12,.06,.24,.08,.36l-.6,.35c-.02-.12-.05-.24-.08-.36h0Z"/>
              <path class="cls-14" d="M2.92,14.35l.6-.35c.02,.11,.03,.22,.03,.33h0s-.6,.35-.6,.35h0c0-.11,0-.22-.03-.33h0Z"/>
              <path class="cls-14" d="M2.94,14.69l.6-.35c0,.12-.01,.23-.04,.33l-.6,.35c.02-.1,.03-.21,.04-.33h0Z"/>
              <path class="cls-14" d="M2.91,15.01l.6-.35c-.06,.26-.19,.44-.36,.54l-.6,.35c.18-.1,.3-.29,.36-.54h0Z"/>
            </g>
          </g>
        </g>
        <path class="cls-17" d="M1.59,12.33c.75,.43,1.36,1.49,1.36,2.35,0,.86-.61,1.21-1.37,.78-.75-.43-1.36-1.49-1.36-2.35,0-.86,.61-1.21,1.37-.78Z"/>
        <path class="cls-1" d="M1.58,12.86c.5,.29,.9,.98,.9,1.55,0,.57-.41,.8-.9,.51-.5-.29-.9-.98-.9-1.55,0-.57,.41-.8,.9-.52Z"/>
      </g>
    </g>
  </g>
</svg>