<?xml version="1.0" encoding="UTF-8"?>
<svg id="Layer_2" data-name="Layer 2" xmlns="http://www.w3.org/2000/svg" viewBox="0 0 34.85 32.5">
  <defs>
    <style>
      .cls-1 {
        fill: #e6ecb8;
      }

      .cls-2 {
        fill: none;
        stroke: #e6ecb8;
        stroke-miterlimit: 10;
        stroke-width: 5.05px;
      }
    </style>
  </defs>
  <g id="Layer_2-2" data-name="Layer 2">
    <g>
      <path class="cls-2" d="M5.05,26.62l-2.48-2.48-.04-19.69,3.56-1.47,4.71,4.74,.05-.05h13.14l.05,.05,4.71-4.74,3.56,1.47-.04,19.69-2.48,2.48-8.29,2.71c-2.66,.87-5.53,.87-8.19,0l-8.29-2.71Z"/>
      <path class="cls-1" d="M16.65,15.49v6.77c-.45,0-.81,.36-.81,.81h-.42c0-.45-.36-.81-.81-.81v-6.77c.45,0,.81-.36,.81-.81h.42c0,.45,.36,.81,.81,.81Z"/>
      <path class="cls-1" d="M21.3,15.49v6.77c-.45,0-.81,.36-.81,.81h-.42c0-.45-.36-.81-.81-.81v-6.77c.45,0,.81-.36,.81-.81h.42c0,.45,.36,.81,.81,.81Z"/>
    </g>
  </g>
</svg>