<svg width="132" height="59" viewBox="0 0 132 59" fill="none" xmlns="http://www.w3.org/2000/svg">
<g clip-path="url(#clip0_1_200)">
<path d="M6.01373 31.4598H24.0549V52.9654H6.01373V59H0V37.5387H6.01373V46.8865H18.0412V37.5387H6.01373V31.4598Z" fill="#EFEFC8"/>
<path d="M34.3579 52.9654H28.3441V31.4598H34.3579V52.9654ZM46.3853 59H34.3579V52.9654H46.3853V59Z" fill="#EFEFC8"/>
<path d="M56.6883 31.4598H74.899V59H68.8853V54.866L61.7513 59H50.6746V37.4944H56.6883V52.9654H60.1226L68.8853 47.8774V37.4944H56.6883V31.4598Z" fill="#EFEFC8"/>
<path d="M6.03584 21.1211H0V0H6.03584V21.1211ZM24.0623 27.1557H6.03584V21.1211H24.0623V27.1557Z" fill="#EFEFC8"/>
<path d="M34.3579 0H52.5686V27.1557H46.5549V23.0217L39.4209 27.1557H28.3441V6.0346H34.3579V21.1211H37.7922L46.5549 16.0331V6.0346H34.3579V0Z" fill="#EFEFC8"/>
<path d="M103.42 37.4944H85.2093V52.9654H103.42V59H79.1956V31.4598H103.42V37.4944Z" fill="#EFEFC8"/>
<path d="M103.567 50.7024H97.5684V59H103.567V50.7024Z" fill="#EFEFC8"/>
<path d="M103.567 31.4598H97.5684V40.9036H103.567V31.4598Z" fill="#EFEFC8"/>
<path d="M107.709 31.4598H132.007V48.2176H113.789V52.7879H107.717V31.4524L107.709 31.4598ZM125.927 42.1238V37.5535H113.782V42.1238H125.927ZM132 58.8817H113.782V52.7879H132V58.8817Z" fill="#EFEFC8"/>
</g>
<defs>
<clipPath id="clip0_1_200">
<rect width="132" height="59" fill="white"/>
</clipPath>
</defs>
</svg>
