<?xml version="1.0" encoding="UTF-8"?>
<svg id="Layer_2" data-name="Layer 2" xmlns="http://www.w3.org/2000/svg" viewBox="0 0 384.11 62.61">
  <g id="Layer_1-2" data-name="Layer 1">
    <g>
      <path d="M49.72,45.37c-2.27-4.27-4.35-7.17-9.8-8.62v-.73c11.44-1.09,17.15-6.99,17.15-16.88C57.07,7.53,48.54,.9,33.57,.9H0V61.7H13.61v-22.05h8.98c7.08,0,9.35,1.54,11.8,6.26l8.35,15.79h15.78l-8.8-16.33Zm-16.24-15.97H13.61V13.15h19.87c6.44,0,9.35,2.09,9.35,8.08,0,6.35-2.91,8.17-9.35,8.17Z"/>
      <path d="M94.1,0c-20.15,0-32.67,12.34-32.67,31.3s12.52,31.31,32.67,31.31,33.03-12.34,33.03-31.31S114.69,0,94.1,0Zm0,49.54c-13.34,0-18.24-4.72-18.24-18.24s4.9-18.24,18.24-18.24,18.51,4.72,18.51,18.24-5.18,18.24-18.51,18.24Z"/>
      <path d="M178.67,.9V35.29c0,10.35-3.81,14.07-16.25,14.07s-16.24-3.72-16.24-14.07V.9h-13.61V36.29c0,16.34,10.07,26.32,29.85,26.32s29.86-9.98,29.86-26.32V.9h-13.61Z"/>
      <path d="M196.81,.9V13.15h22.6V61.7h13.61V13.15h22.6V.9h-58.81Z"/>
      <path d="M311.97,13.15V.9h-51.45V61.7h51.45v-12.25h-37.84v-12.25h36.48v-12.16h-36.48V13.15h37.84Z"/>
      <path d="M331.84,.9h-17.79l15.39,18.69h17.1L331.84,.9Zm-1.41,40.03l-16.38,20.77h17.79l15.62-20.77h-17.03Zm37.21,0h-17.37l16.05,20.77h17.79l-16.47-20.77ZM384.11,.9h-17.79l-14.15,18.69h16.55L384.11,.9Z"/>
    </g>
  </g>
</svg>