<svg width="362" height="259" viewBox="0 0 362 259" fill="none" xmlns="http://www.w3.org/2000/svg">
<g clip-path="url(#clip0_66_759)">
<path fill-rule="evenodd" clip-rule="evenodd" d="M219 207.07L243.95 254.94L361.4 227.23V231.05L317.43 241.45L302.8 244.86L288 248.36L243.95 258.68L219 210.73V207.07Z" fill="url(#paint0_radial_66_759)"/>
<path fill-rule="evenodd" clip-rule="evenodd" d="M361.4 227.23L243.95 254.94L219 207.07V206.99L336.69 179.27L341.49 188.7L349.13 203.49L361.4 227.23Z" fill="url(#paint1_radial_66_759)"/>
<path fill-rule="evenodd" clip-rule="evenodd" d="M239.32 230.89L235.42 231.94L233.63 226.17L252.57 211.7L265.29 215.64L264.68 217.92L255.09 215.2L239.32 230.89Z" fill="url(#paint2_linear_66_759)"/>
<path fill-rule="evenodd" clip-rule="evenodd" d="M298.25 231.06C297.25 231.69 296.02 232 294.56 232C293.1 232 291.85 231.69 290.82 231.06C289.82 230.46 289.32 229.71 289.32 228.83C289.32 227.95 289.82 227.19 290.82 226.57C291.86 225.97 293.1 225.66 294.56 225.66C296.02 225.66 297.25 225.96 298.25 226.57C299.29 227.2 299.8 227.95 299.8 228.83C299.8 229.71 299.28 230.45 298.25 231.06Z" fill="url(#paint3_radial_66_759)"/>
<path fill-rule="evenodd" clip-rule="evenodd" d="M319.78 216.5L343.76 214.39L334.25 196.02L313.36 204.31L319.78 216.5ZM311.74 204.96C310.12 205.55 308.84 206.5 307.92 207.8C306.89 209.32 306.78 210.89 307.59 212.51C308.46 214.19 310.03 215.41 312.3 216.17C314.47 216.88 316.66 217.01 318.88 216.58L312.54 204.55L311.81 204.96H311.73H311.74ZM288.58 211.13C290.42 210.81 292.24 210.97 294.02 211.62C296.02 212.27 297.38 213.3 298.08 214.71C298.84 216.12 298.73 217.5 297.76 218.86C296.95 220 295.65 220.81 293.86 221.3L302.15 237.31L349.94 226.26L349.13 224.8L341.9 226.51C334.42 228.03 327.05 227.56 319.79 225.13C312.26 222.64 307.11 218.71 304.35 213.35C301.53 207.93 301.88 202.68 305.41 197.58C308.66 192.81 313.73 189.48 320.61 187.58C320.94 187.52 321.26 187.47 321.59 187.42L328.91 185.71L328.1 184.09L280.31 195.14L288.6 211.15L288.58 211.13ZM293.54 220.72C295.11 220.29 296.28 219.58 297.04 218.61C297.85 217.37 297.93 216.12 297.28 214.87C296.63 213.62 295.44 212.73 293.71 212.19C292.14 211.59 290.51 211.43 288.83 211.7L293.54 220.72ZM287.93 211.94C286.36 212.37 285.17 213.16 284.35 214.3C283.59 215.44 283.54 216.63 284.19 217.88C284.84 219.13 286.01 220.08 287.69 220.72C289.37 221.26 291.02 221.34 292.65 220.96L287.94 211.94H287.93ZM312.56 203.9H312.72L333.94 195.45L329.14 186.27L321.82 187.98C321.6 188.03 321.36 188.11 321.09 188.22H321.01C314.35 190.01 309.42 193.23 306.22 197.89C302.75 202.82 302.4 207.91 305.17 213.17C307.88 218.37 312.86 222.19 320.12 224.63C327.16 226.96 334.32 227.37 341.58 225.85L348.81 224.14L344.1 214.95L319.07 217.14C316.74 217.68 314.33 217.52 311.84 216.65C309.4 215.84 307.7 214.51 306.72 212.67C305.8 210.88 305.91 209.15 307.04 207.47C308.07 206.01 309.51 204.98 311.35 204.38L312.57 203.89L312.56 203.9ZM263.71 216.17L262.73 216.34L268.91 228.29C271.13 227.75 272.73 226.75 273.71 225.28C274.79 223.71 274.9 222.11 274.03 220.49C273.22 218.87 271.65 217.65 269.32 216.83C267.48 216.23 265.61 216.02 263.71 216.18V216.17ZM237.78 218.61L247.37 236.98L268.18 228.69L261.84 216.42L237.78 218.61ZM231.6 206.5L232.66 208.69L239.73 206.98C240.06 206.93 240.41 206.9 240.79 206.9C247.73 205.54 254.55 206.01 261.27 208.28C268.69 210.77 273.76 214.65 276.47 219.9C279.23 225.21 278.85 230.33 275.33 235.26C272.02 240.03 266.74 243.34 259.48 245.18L252.49 246.89L253.47 248.68L301.26 237.55L292.97 221.54C291.07 221.97 289.18 221.89 287.28 221.3C285.38 220.59 284.06 219.54 283.3 218.13C282.6 216.72 282.68 215.37 283.55 214.07C284.47 212.77 285.85 211.87 287.69 211.39L279.4 195.38L231.6 206.5ZM232.98 209.26L237.53 217.96L261.99 215.76H262.07L263.45 215.6C265.56 215.38 267.65 215.6 269.71 216.25C272.2 217.12 273.91 218.44 274.83 220.23C275.81 222.02 275.7 223.78 274.51 225.52C273.37 227.14 271.64 228.26 269.31 228.85L247.69 237.55L252.24 246.33L259.23 244.62C266.17 242.83 271.26 239.63 274.51 235.03C277.98 230.21 278.36 225.22 275.65 220.07C273 214.98 268.09 211.24 260.94 208.85C254.44 206.63 247.77 206.17 240.94 207.47H240.86C240.59 207.47 240.32 207.5 240.05 207.55L232.98 209.26ZM230.62 206.41V206.25L230.87 206L328.16 183.42L328.57 183.5L328.82 183.58L351.01 226.33L350.93 226.66L350.69 226.74L253.4 249.34L252.99 249.42L252.83 249.18L230.62 206.42V206.41Z" fill="#F4CAA6"/>
<path fill-rule="evenodd" clip-rule="evenodd" d="M347.69 206.57L344.49 201.02L345.47 198.13L349.04 204.84L347.69 206.57Z" fill="#7F3910"/>
<path fill-rule="evenodd" clip-rule="evenodd" d="M324.25 167.49L332.87 181.79L333.77 183.09L333.85 183.82V186.09L334.02 188.77L334.26 196.73L331.17 191.69L331.09 191.36L332.06 183.48L325.96 175.43V183.32L325.72 182.83L324.26 180.39V167.49H324.25ZM330.02 189.84L329.53 189.11L327.58 185.94L326.77 184.48L327.01 177.57L331.08 183.58L330.02 189.84Z" fill="#1D2E79"/>
<path fill-rule="evenodd" clip-rule="evenodd" d="M335.23 184.07L335.39 186.34V188.78L335.47 196.26L334.25 196.75L334.01 188.78L333.84 186.1V183.83L333.77 183.09L332.87 181.79L324.25 167.49L325.64 167L335.23 182.28V184.07Z" fill="#0B1644"/>
<path fill-rule="evenodd" clip-rule="evenodd" d="M339.78 187.65L341.24 187.16L343.35 206.34L339.78 200V187.65Z" fill="#635E5A"/>
<path fill-rule="evenodd" clip-rule="evenodd" d="M335.39 186.34L343.6 185.04L347.82 205.53L343.35 206.34L341.24 187.16L339.78 187.65L335.39 188.78V186.34Z" fill="#7E7974"/>
<path fill-rule="evenodd" clip-rule="evenodd" d="M343.6 185.04L335.39 186.34L335.23 184.07L342.22 183.34L343.6 185.04Z" fill="#B0B0B0"/>
<path fill-rule="evenodd" clip-rule="evenodd" d="M326.77 184.47L325.96 183.34V175.45L332.06 183.5L331.08 191.38L330.03 189.84L331.08 183.58L327.02 177.57L326.77 184.47Z" fill="#D2D4DE"/>
<path fill-rule="evenodd" clip-rule="evenodd" d="M247.4 200.54L247.45 200.31L247.63 200.22L247.86 200.26L247.95 200.44L249.23 211.83L249.18 212.06L249 212.15L248.77 212.11L248.68 211.93L247.4 200.54ZM248.77 199.26L248.81 199.03L248.99 198.94L249.22 198.99L249.31 199.17L250.31 210.28L250.26 210.51L250.08 210.6L249.85 210.56L249.76 210.38L248.76 199.26H248.77ZM250.32 198.3H250.91L252.14 208.37L252.1 208.6L251.92 208.69L251.69 208.65L251.6 208.47L250.33 198.31L250.32 198.3ZM260.84 201.49L260.88 201.72L259.24 213.47L259.15 213.65L258.92 213.69L258.74 213.6L258.7 213.37L260.34 201.62L260.43 201.44L260.66 201.4L260.84 201.49ZM252.78 198.12H253.33L253.88 208.51L253.79 208.69L253.61 208.78L253.43 208.69L253.34 208.51L252.79 198.12H252.78ZM255.15 198.21H255.7L255.88 208.42L255.79 208.6L255.61 208.69L255.43 208.6L255.34 208.42L255.16 198.21H255.15ZM258.61 200.12L258.7 199.94L258.88 199.85L259.06 199.94L259.15 200.12L258.51 210.6L258.42 210.78L258.24 210.87L258.06 210.78L257.97 210.6L258.61 200.12ZM257.24 199.48L257.33 199.66V208.95L257.24 209.13L257.06 209.22L256.88 209.13L256.79 208.95V199.66L256.88 199.48L257.06 199.39L257.24 199.48Z" fill="#B1B1B1"/>
<path fill-rule="evenodd" clip-rule="evenodd" d="M248.04 209.74L248.31 211.52L249.36 211.2L249.18 209.29L248.04 209.75V209.74ZM249 207.28L248.91 207.37L247.82 208.01L247.96 209.15L249.14 208.69L249 207.28ZM254.65 211.93L254.83 209.93L252.37 210.75L252.46 212.84L254.65 211.93ZM259.43 210.52L258.25 211.02L258.11 213.02L259.25 212.43L259.43 210.51V210.52ZM257.34 210.79L257.43 209.02L255.79 209.61L255.61 211.53L257.34 210.8V210.79ZM258.43 208.7L258.29 210.39L259.47 209.89L259.61 208.29L258.43 208.7ZM255.24 206.88L255.56 206.79L255.88 206.97L255.97 207.29L255.83 208.97L257.47 208.38L257.61 206.51L257.75 206.19L258.07 206.06L258.39 206.19L258.53 206.51L258.49 208.06L259.67 207.65L259.99 204.37L260.13 204.1L260.5 203.96L260.77 204.1L260.91 204.47L260 214.4L259.82 214.72L259.5 214.81L259.18 214.63L259.09 214.31L259.23 213.08L258.09 213.67L257.91 216.86L257.77 217.13L257.4 217.27L257.13 217.13L256.99 216.77L257.13 214.17L256.31 214.58L256.08 214.62L255.94 214.49L255.9 214.26L256.04 214.12L257.18 213.53L257.32 211.44L255.59 212.17L255.09 218.23L254.91 218.55L254.59 218.64L254.27 218.46L254.18 218.14L254.64 212.58L252.55 213.49L252.73 217.73L252.59 218.05L252.27 218.19L251.95 218.05L251.82 217.73L251.5 211.08L250.36 211.49L250.81 216.32L250.72 216.64L250.4 216.82L250.08 216.73L249.9 216.41L249.44 211.81L248.44 212.13L248.53 212.72L248.44 213.09L248.17 213.27L247.8 213.18L247.62 212.91L246.94 208.49L246.89 208.53L246.66 208.49L246.52 208.35L246.56 208.12L246.7 207.98L246.88 207.89L246.15 202.65L246.24 202.33L246.56 202.15L246.88 202.24L247.06 202.56L247.74 207.44L248.65 206.94L248.88 206.89L248.97 206.98L248.88 205.66L248.97 205.34L249.29 205.16L249.61 205.25L249.79 205.57L250.06 208.39L250.88 208.07H251.06L251.24 208.25V208.43L251.06 208.61L250.1 208.98L250.28 210.89L251.42 210.48L251.24 207.02L251.38 206.65L251.7 206.52L252.02 206.65L252.16 206.97L252.34 210.16L254.89 209.29L255.07 207.2L255.25 206.88H255.24Z" fill="#C8C8C8"/>
<path fill-rule="evenodd" clip-rule="evenodd" d="M261.48 201.59V201.68C261.48 203.14 260.66 204.38 259.02 205.42C257.62 206.39 255.86 206.88 253.73 206.88C251.6 206.82 249.78 206.33 248.26 205.42C246.68 204.39 245.92 203.14 245.98 201.68C245.92 200.22 246.68 199.01 248.26 198.03C249.78 197.06 251.6 196.57 253.73 196.57C255.85 196.57 257.68 197.05 259.2 198.03C260.73 199.02 261.49 200.2 261.48 201.58V201.59ZM260.21 201.68V201.04C259.97 200.55 259.69 200.13 259.39 199.76L259.3 199.67C259 199.43 258.69 199.22 258.39 199.03C257.12 198.24 255.57 197.84 253.74 197.84C251.86 197.78 250.28 198.18 249 199.03C247.85 199.82 247.27 200.7 247.27 201.67C247.27 202.7 247.85 203.59 249 204.31C250.28 205.16 251.86 205.59 253.74 205.59C255.56 205.53 257.11 205.11 258.39 204.31C259.61 203.58 260.21 202.7 260.21 201.67V201.68Z" fill="white"/>
<path fill-rule="evenodd" clip-rule="evenodd" d="M249.4 214.71L249.15 205.93L248.99 202.92V200.49V200L248.91 199.67L238.51 182.53L239.97 182.04L250.54 198.78V200.81L250.62 203.17V205.93L250.78 214.14L249.4 214.71Z" fill="#0B1644"/>
<path fill-rule="evenodd" clip-rule="evenodd" d="M238.51 182.53L248.91 199.67L248.99 200V200.49V202.92L249.15 205.93L249.4 214.71L243.38 204.79L244.68 204.31L245.09 201.62L242.41 197.16L239.72 198.78L238.51 196.75V182.53Z" fill="#1D2E79"/>
<path fill-rule="evenodd" clip-rule="evenodd" d="M239.72 198.78L242.41 197.16L245.09 201.62L235.5 206.01L233.22 203.17L239.72 198.78Z" fill="#B0B0B0"/>
<path fill-rule="evenodd" clip-rule="evenodd" d="M234.85 232.18L235.5 206.01L245.09 201.62L244.68 204.31L243.38 204.79L237.86 207.15L238.67 231.29L234.85 232.18Z" fill="#7D7873"/>
<path fill-rule="evenodd" clip-rule="evenodd" d="M235.5 206.01L234.85 232.18L231.76 226.17L233.22 203.17L235.5 206.01Z" fill="#635E5A"/>
<path fill-rule="evenodd" clip-rule="evenodd" d="M313.77 186.22L313.81 185.99L313.99 185.9L314.22 185.94L314.31 186.12L315.59 197.51L315.54 197.74L315.36 197.83L315.13 197.79L315.04 197.61L313.77 186.22ZM316.68 183.99H317.27L318.5 194.06L318.46 194.29L318.28 194.38L318.05 194.34L317.96 194.16L316.68 184V183.99ZM315.13 184.94L315.17 184.71L315.35 184.62L315.58 184.67L315.67 184.85L316.67 195.96L316.63 196.19L316.45 196.28L316.22 196.24L316.13 196.06L315.13 184.94ZM327.2 187.17L327.24 187.4L325.6 199.15L325.51 199.33L325.28 199.37L325.1 199.28L325.06 199.05L326.7 187.3L326.79 187.12L327.02 187.08L327.2 187.17ZM321.5 183.89H322.04L322.22 194.1L322.13 194.28L321.95 194.37L321.77 194.28L321.68 194.1L321.5 183.89ZM319.13 183.8H319.68L320.23 194.19L320.14 194.37L319.96 194.46L319.78 194.37L319.69 194.19L319.14 183.8H319.13ZM323.59 185.17L323.68 185.35V194.64L323.59 194.82L323.41 194.91L323.23 194.82L323.14 194.64V185.35L323.23 185.17L323.41 185.08L323.59 185.17ZM324.96 185.81L325.05 185.63L325.23 185.54L325.41 185.63L325.5 185.81L324.86 196.29L324.77 196.47L324.59 196.56L324.41 196.47L324.32 196.29L324.96 185.81Z" fill="#B1B1B1"/>
<path fill-rule="evenodd" clip-rule="evenodd" d="M314.4 195.42L314.67 197.2L315.72 196.88L315.54 194.97L314.4 195.43V195.42ZM315.36 192.96L315.27 193.05L314.18 193.69L314.32 194.83L315.51 194.37L315.37 192.96H315.36ZM321.01 197.61L321.19 195.61L318.73 196.43L318.82 198.52L321.01 197.61ZM324.79 194.37L324.65 196.06L325.84 195.56L325.97 193.97L324.79 194.38V194.37ZM323.69 196.47L323.78 194.69L322.14 195.28L321.96 197.19L323.69 196.46V196.47ZM325.79 196.2L324.61 196.7L324.48 198.7L325.62 198.11L325.8 196.2H325.79ZM321.6 192.55L321.92 192.46L322.24 192.64L322.33 192.96L322.2 194.64L323.84 194.05L323.97 192.18L324.11 191.86L324.43 191.73L324.75 191.86L324.89 192.18L324.84 193.73L326.02 193.32L326.34 190.04L326.48 189.77L326.85 189.63L327.12 189.77L327.26 190.14L326.35 200.07L326.17 200.39L325.85 200.48L325.53 200.3L325.44 199.98L325.57 198.75L324.43 199.34L324.25 202.53L324.11 202.8L323.74 202.94L323.47 202.8L323.33 202.44L323.47 199.84L322.65 200.25L322.42 200.29L322.28 200.16L322.24 199.93L322.38 199.79L323.52 199.2L323.66 197.11L321.93 197.84L321.43 203.9L321.25 204.22L320.93 204.31L320.61 204.13L320.52 203.81L320.97 198.25L318.88 199.16L319.06 203.4L318.92 203.72L318.6 203.86L318.28 203.72L318.14 203.4L317.82 196.75L316.68 197.16L317.13 201.99L317.04 202.31L316.72 202.49L316.4 202.4L316.22 202.08L315.76 197.48L314.76 197.8L314.85 198.39L314.76 198.75L314.49 198.93L314.13 198.84L313.95 198.57L313.27 194.15L313.23 194.2L313 194.15L312.87 194.01L312.91 193.78L313.05 193.64L313.23 193.55L312.5 188.31L312.59 187.99L312.91 187.81L313.23 187.9L313.41 188.22L314.09 193.1L315 192.6L315.23 192.55L315.32 192.64L315.23 191.32L315.32 191L315.64 190.82L315.96 190.91L316.14 191.23L316.41 194.05L317.23 193.73H317.41L317.59 193.91V194.09L317.41 194.27L316.45 194.63L316.63 196.54L317.77 196.13L317.59 192.67L317.73 192.3L318.05 192.17L318.37 192.3L318.51 192.62L318.69 195.81L321.24 194.94L321.42 192.85L321.6 192.53V192.55Z" fill="#C8C8C8"/>
<path fill-rule="evenodd" clip-rule="evenodd" d="M327.47 187.24C327.29 186.79 327.03 186.38 326.68 186.02L326.55 185.89C326.29 185.67 326.02 185.48 325.72 185.3C324.44 184.49 322.88 184.08 321.03 184.08C319.18 184.08 317.59 184.49 316.28 185.3C315.14 186.04 314.55 186.92 314.53 187.94C314.55 188.96 315.13 189.84 316.28 190.58C317.6 191.4 319.18 191.8 321.03 191.8C322.88 191.8 324.44 191.39 325.72 190.58C326.91 189.84 327.51 188.96 327.54 187.94C327.54 187.68 327.51 187.46 327.47 187.28V187.25V187.24ZM330.05 186.32L330.31 186.72L330.18 187.18L329.78 187.44L328.79 187.64V187.94C328.82 189.39 328.01 190.62 326.38 191.64C324.93 192.59 323.14 193.06 321.03 193.06C318.92 193.06 317.11 192.59 315.62 191.64C314.04 190.62 313.25 189.39 313.28 187.94C313.26 186.49 314.04 185.26 315.62 184.24C317.12 183.29 318.92 182.82 321.03 182.82C323.14 182.82 324.92 183.29 326.38 184.24C326.65 184.41 326.9 184.6 327.14 184.8L328.43 184.37L328.89 184.4L329.22 184.77L329.19 185.23L328.83 185.56L328.1 185.79C328.24 185.99 328.36 186.2 328.47 186.42L329.59 186.19L330.05 186.32Z" fill="white"/>
<path fill-rule="evenodd" clip-rule="evenodd" d="M289.06 208.78L289.55 209.35C290.58 209.73 292.02 209.76 293.86 209.43C295.54 208.78 296.87 208.05 297.84 207.23L297.92 207.72L297.6 208.29C296.35 208.89 295.81 210.02 295.97 211.7V211.94L296.38 212.51L296.87 212.84C297.52 212.84 298.01 212.57 298.33 212.03L298.49 213.09L298.08 213.17C297.59 213.33 297.1 213.33 296.62 213.17C296.13 213.01 295.78 212.71 295.56 212.28C295.34 211.85 295.26 211.39 295.32 210.9C295.37 210.47 295.54 210.03 295.81 209.6C295.97 209.28 296.14 209.03 296.3 208.87C295.54 209.25 294.73 209.6 293.86 209.93C292.13 210.58 290.55 210.42 289.15 209.44L289.07 208.79L289.06 208.78ZM298.65 219.51L298.16 219.59L297.67 214.88C298 214.77 298.32 214.66 298.65 214.55L299.22 219.1L298.65 219.51ZM298.81 224.47C298.16 223.17 296.91 222.55 295.07 222.6V222.19C295.39 222.14 295.83 222.14 296.37 222.19C296.91 222.24 297.4 222.35 297.83 222.52C298.21 222.74 298.53 222.9 298.81 223.01V224.47ZM297.43 219.68L294.91 219.84L294.34 219.92L294.5 216.34L293.61 216.17L292.88 219.67L291.66 219.75C291.93 219.59 292.15 219.4 292.31 219.18C292.64 218.8 292.85 218.39 292.96 217.96C293.07 217.53 293.15 217.07 293.2 216.58V216.42L292.96 216.17C292.85 216.88 292.64 217.5 292.31 218.04C291.99 218.69 291.58 219.07 291.09 219.18L289.46 217.31L289.79 217.23L289.71 214.47C290.36 214.74 290.98 214.98 291.58 215.2C291.96 215.25 292.34 215.33 292.72 215.44L294.34 215.52C295.26 215.47 296.18 215.3 297.1 215.03L297.42 219.66L297.43 219.68ZM288.08 217.65C289.22 218.08 289.73 218.92 289.62 220.17L288.89 220.33C288.94 219.03 288.43 218.19 287.35 217.81L288.08 217.65Z" fill="white"/>
<path fill-rule="evenodd" clip-rule="evenodd" d="M297.11 201.54L296.22 202.68L297.11 205.69L296.14 206.18L295.41 203.33L294.92 203.98L295.57 206.99C293.35 208.29 291.15 208.54 288.99 207.72C288.61 207.29 288.18 206.2 287.69 204.47C287.15 202.79 287.28 201.11 288.1 199.43L296.8 195.85L296.47 197.39L298.91 197.8L297.12 201.54H297.11Z" fill="#2D1A00"/>
<path fill-rule="evenodd" clip-rule="evenodd" d="M295.08 222.59C296.92 222.54 298.17 223.16 298.82 224.46L298.98 225.44L297.92 225.68L295.16 224.3L295.08 222.59ZM287.36 217.8C288.44 218.18 288.96 219.02 288.9 220.32L288.09 221.46L287.28 221.14L286.79 217.89L287.36 217.81V217.8Z" fill="black"/>
<path fill-rule="evenodd" clip-rule="evenodd" d="M299.63 204.63C300.01 205.5 300.58 206.18 301.34 206.66L300.28 207.63C299.57 207.41 299.11 206.87 298.9 206.01L299.63 204.63ZM298.65 214.55C298.32 214.66 298 214.77 297.67 214.88L298.16 219.59L297.43 219.67L297.11 215.04C296.19 215.31 295.27 215.47 294.35 215.53L292.73 215.45C292.35 215.34 291.97 215.26 291.59 215.21C290.99 214.99 290.37 214.75 289.72 214.48L289.15 209.44C290.56 210.42 292.13 210.58 293.86 209.93C294.73 209.6 295.54 209.25 296.3 208.87C296.14 209.03 295.97 209.28 295.81 209.6C295.54 210.03 295.38 210.47 295.32 210.9C295.27 211.39 295.35 211.85 295.56 212.28C295.78 212.71 296.13 213.01 296.62 213.17C297.11 213.33 297.6 213.33 298.08 213.17L298.49 213.09L298.65 214.55ZM291.58 219.75L291.09 219.18C291.58 219.07 291.98 218.69 292.31 218.04C292.64 217.5 292.85 216.87 292.96 216.17L293.2 216.42V216.58C293.15 217.07 293.07 217.53 292.96 217.96C292.85 218.39 292.64 218.8 292.31 219.18C292.15 219.4 291.93 219.59 291.66 219.75H291.58Z" fill="#CC2020"/>
<path fill-rule="evenodd" clip-rule="evenodd" d="M301.33 206.66C300.57 206.17 300 205.49 299.62 204.63L300.19 203.49L299.95 202.11L300.44 201.95L300.68 202.6L301.25 201.62L302.06 200.56L302.22 200.89L301.65 201.78L301.89 202.35L302.7 201.46L302.78 202.11L301.97 203.09L302.21 203.58L303.02 202.85L303.18 203.58L302.53 204.07L302.86 204.72L303.67 204.89L303.51 205.38L302.86 205.3L301.32 206.68L301.33 206.66ZM298.89 206.01C299.11 206.88 299.57 207.42 300.27 207.63L298.07 209.66L298.31 212.02C297.99 212.56 297.5 212.83 296.85 212.83L296.36 212.5L295.95 211.93V211.69C295.79 210.01 296.33 208.87 297.58 208.28L297.9 207.71L298.88 206L298.89 206.01ZM294.91 219.83L297.43 219.67L298.16 219.59L298.65 219.51L298.81 223.01C298.54 222.9 298.21 222.74 297.83 222.52C297.4 222.36 296.91 222.25 296.37 222.19C295.83 222.14 295.39 222.14 295.07 222.19V222.03L294.91 219.84V219.83ZM289.63 220.16C289.74 218.91 289.22 218.07 288.09 217.64L289.47 217.31L291.1 219.18L291.59 219.75L289.64 220.16H289.63ZM297.84 207.24C296.86 208.05 295.54 208.78 293.86 209.44C292.02 209.77 290.58 209.74 289.55 209.36L289.06 208.79L288.98 207.74C291.15 208.55 293.34 208.31 295.56 207.01L294.91 204L295.4 203.35L296.13 206.2L297.1 205.71L296.21 202.7L297.1 201.56L297.83 207.25L297.84 207.24Z" fill="#20201F"/>
<path fill-rule="evenodd" clip-rule="evenodd" d="M307.07 175.53C307.35 176.18 307.48 176.9 307.48 177.67V177.75C307.46 179.21 306.93 180.45 305.89 181.45C305.61 181.74 305.31 182 304.98 182.22C304.15 182.77 303.18 183.04 302.1 183.04C301.74 183.04 301.39 183.01 301.06 182.96C300 182.76 299.07 182.26 298.26 181.45L298.23 181.42C297.23 180.4 296.72 179.14 296.72 177.66V177.52C296.74 176.31 297.11 175.24 297.82 174.31L298.26 173.82C299.03 173.08 299.92 172.6 300.92 172.39C301.29 172.32 301.69 172.28 302.1 172.28C303.3 172.28 304.34 172.61 305.23 173.27C305.46 173.43 305.68 173.61 305.89 173.82C306.12 174.04 306.32 174.28 306.49 174.53C306.72 174.84 306.91 175.17 307.07 175.52V175.53Z" fill="url(#paint4_radial_66_759)"/>
<path fill-rule="evenodd" clip-rule="evenodd" d="M305.01 173.33L305.26 173.55C303.84 175.67 301.95 176.87 299.58 177.15C299.55 177.51 299.55 177.87 299.58 178.25C301.16 178.59 302.82 178.65 304.55 178.44C305.56 178.31 306.48 178.06 307.32 177.7V178.03C306.49 178.38 305.59 178.63 304.6 178.77C302.86 178.99 301.18 178.92 299.58 178.58C299.64 179.38 299.72 179.99 299.83 180.42H299.86C301.55 179.95 303.27 180.48 305.02 182.01L304.77 182.23C303.14 180.81 301.54 180.32 299.97 180.75C300.26 181.51 300.67 182.22 301.2 182.89H300.76C300.28 182.25 299.9 181.57 299.64 180.86L299.31 181C299.11 181.09 298.83 181.25 298.49 181.46L298.13 181.35L298.16 181.32C298.55 180.99 298.95 180.74 299.37 180.58L299.54 180.52L299.51 180.38V180.35C299.3 179.86 299.22 179.25 299.26 178.51C298.46 178.34 297.67 178.11 296.9 177.8V177.44C297.67 177.75 298.44 177.99 299.23 178.16C299.22 177.81 299.23 177.46 299.26 177.12C298.55 176.66 298.09 176.04 297.89 175.25V175.22L297.81 174.81L298.06 174.43C298.11 174.65 298.17 174.9 298.23 175.17C298.38 175.83 298.74 176.36 299.3 176.76C299.43 175.28 299.87 173.92 300.62 172.67H301C300.2 173.93 299.75 175.31 299.63 176.81C301.88 176.52 303.68 175.36 305.04 173.33H305.01Z" fill="#6B360A"/>
</g>
<g clip-path="url(#clip1_66_759)">
<path fill-rule="evenodd" clip-rule="evenodd" d="M100.806 47.2442L100 45.7143L196.789 22.6728L233 92.8848L136.229 116L100.806 47.2442Z" fill="#C6A774"/>
<path fill-rule="evenodd" clip-rule="evenodd" d="M211.251 53.8802L124.696 73.106L112.797 65.6406L204.038 40.1106L211.251 53.8802Z" fill="#937138"/>
<path fill-rule="evenodd" clip-rule="evenodd" d="M138.536 48.2396L140.294 56.7926L173.576 48.8663L174.637 48.6267L172.752 39.6313L176.285 38.8387L176.486 39.7788L178.207 47.7235L200.78 42.3963L201.64 42.1935V40.6636L198.949 27.2627L201.713 26.5622L204.588 41.4378V43.7788L201.219 44.5714L174.052 51.0783L137.877 59.6866L112.797 65.6405V63.2995L111.021 54.341L110.819 53.2903L113.016 52.682L113.254 53.8433L115.067 62.8018L136.614 57.659L137.328 57.4746L135.003 48.1843L138.353 47.4101L138.536 48.2396Z" fill="#CCCCCC"/>
<path fill-rule="evenodd" clip-rule="evenodd" d="M164.477 24.9769L152.761 27.0046L153.822 34.7281V34.8571L148.66 23.0968L160.834 20.3687L164.477 24.9769Z" fill="#918479"/>
<path fill-rule="evenodd" clip-rule="evenodd" d="M134.307 49.1797L136.614 57.659L115.067 62.8019L113.254 53.8433L134.307 49.1797Z" fill="url(#paint5_radial_66_759)"/>
<path fill-rule="evenodd" clip-rule="evenodd" d="M197.759 27.5208L200.78 42.3963L178.207 47.7235L176.486 39.7788L195.141 35.6314L195.764 28.0184L197.759 27.5208Z" fill="url(#paint6_radial_66_759)"/>
<path fill-rule="evenodd" clip-rule="evenodd" d="M173.576 48.8663L140.294 56.7926L138.536 48.2396L171.745 40.8479L173.576 48.8663Z" fill="url(#paint7_radial_66_759)"/>
<path fill-rule="evenodd" clip-rule="evenodd" d="M111.57 45.5853L112.797 47.9263L132.66 43.189L134.307 49.1797L113.254 53.8433L113.016 52.6821L111.57 45.5853Z" fill="url(#paint8_radial_66_759)"/>
<path fill-rule="evenodd" clip-rule="evenodd" d="M176.285 38.8387L175.04 32.9954L195.764 28.0184L195.141 35.6313L176.486 39.7788L176.285 38.8387Z" fill="url(#paint9_radial_66_759)"/>
<path fill-rule="evenodd" clip-rule="evenodd" d="M171.745 40.8479L138.536 48.2396L138.353 47.4101L137.273 42.0645L170.244 34.1382L171.745 40.8479Z" fill="url(#paint10_radial_66_759)"/>
<path fill-rule="evenodd" clip-rule="evenodd" d="M175.04 32.9954L176.285 38.8387L172.752 39.6313L171.544 33.8249L175.04 32.9954ZM134.985 48.1843L133.685 42.9677L137.255 42.0645L138.353 47.4285L134.985 48.1843ZM110.801 53.3087L107.78 38.2673L111.552 45.6037L112.998 52.7004L110.801 53.3272V53.3087Z" fill="#B5B5B5"/>
<path fill-rule="evenodd" clip-rule="evenodd" d="M170.244 34.1382L137.273 42.0645L133.685 42.9493L132.66 43.1889L112.797 47.9262V44.682L132.861 39.9078L152.303 35.2074L153.822 34.8571V34.7281L152.761 27.0046L164.477 24.9769L163.708 32.2949L201.018 23.5207L204.514 22.6175V25.8617L201.713 26.5622L198.949 27.2627L197.759 27.5207L195.764 28.0184L175.04 32.9954L171.544 33.8249L170.244 34.1382Z" fill="#DCD8D8"/>
<path fill-rule="evenodd" clip-rule="evenodd" d="M111.57 45.5852L107.799 38.2488L110.819 53.2903L111.021 54.341L112.797 63.2995V65.6405L104.558 49.659V22.1382L106.353 27.0415L110.051 37.1429L112.797 44.682V47.9263L111.57 45.5852Z" fill="#EDEDED"/>
<path fill-rule="evenodd" clip-rule="evenodd" d="M171.544 33.8249L172.752 39.6314L174.637 48.6268L173.576 48.8664L171.763 40.8479L170.244 34.1383L171.544 33.8249ZM200.78 42.3963L197.759 27.5208L198.967 27.2443L201.64 40.6636V42.1936L200.78 42.3963ZM136.614 57.659L134.307 49.1797L132.66 43.189L133.685 42.9493L134.985 48.1659L137.31 57.4747L136.596 57.6406L136.614 57.659Z" fill="#A69D9D"/>
<path fill-rule="evenodd" clip-rule="evenodd" d="M204.514 22.6175L201.018 23.5207L163.708 32.2949L164.477 24.977L160.834 20.3687L148.66 23.0968L153.822 34.8571L152.303 35.2074L132.861 39.9078L112.797 44.682L110.051 37.1429L106.353 27.0415L104.558 22.1382L155.049 9.95392L157.191 9.43779L196.276 0L204.514 22.6175Z" fill="url(#paint11_linear_66_759)"/>
<path fill-rule="evenodd" clip-rule="evenodd" d="M114.243 21.4378L114.408 21.2903H114.646L114.792 21.4562L121.73 41.1797V41.4193L121.566 41.5668H121.328L121.181 41.4009L114.243 21.6774V21.4378ZM110.874 22.2673L111.039 22.1382H111.277L111.405 22.3041L118.344 42.0276V42.2673L118.179 42.4147H117.941L117.813 42.2488L110.874 22.5253V22.2857V22.2673ZM107.671 22.9677H107.909L108.037 23.1336L114.975 42.8571V43.0968L114.81 43.2258H114.572L114.444 43.0599L107.506 23.3548V23.1152L107.671 22.9862V22.9677ZM195.031 1.51151L195.196 1.38248H195.434L195.562 1.54838L202.501 21.2534V21.4931L202.336 21.6221H202.098L201.97 21.4562L195.031 1.76957V1.52994V1.51151ZM191.663 2.58063V2.341L191.828 2.19354H192.066L192.194 2.35944L199.132 22.0829V22.3226L198.967 22.47H198.729L198.601 22.3041L191.663 2.58063ZM188.294 3.1705L188.459 3.02303H188.697L188.825 3.18893L195.764 22.894V23.1336L195.599 23.2627H195.361L195.214 23.0968L188.276 3.39169V3.15206L188.294 3.1705ZM184.926 3.99999L185.091 3.87096H185.329L185.475 4.03685L192.413 23.7604V24L192.249 24.129H192.011L191.883 23.9631L184.944 4.25805V4.01842L184.926 3.99999ZM181.557 5.06911V4.82948L181.722 4.68202H181.96L182.088 4.84791L189.027 24.5714V24.811L188.862 24.9585H188.624L188.496 24.7926L181.557 5.08755V5.06911ZM178.354 5.51151H178.592L178.72 5.67741L185.658 25.4009V25.6405L185.493 25.788H185.255L185.109 25.6221L178.171 5.89861V5.65897L178.335 5.51151H178.354ZM154.628 11.4654L154.793 11.318H155.031L155.177 11.4839L157.722 18.8203V19.0599L157.557 19.2074H157.319L157.191 19.0415L154.646 11.7051V11.4654H154.628ZM151.424 12.1475H151.662L151.79 12.3134L154.335 19.576V19.8157L154.17 19.9447H153.932L153.786 19.7788L151.241 12.5161V12.2765L151.406 12.129L151.424 12.1475ZM157.978 10.6175L158.143 10.4885H158.381L158.509 10.6544L161.255 18.341V18.5806L161.09 18.7097H160.852L160.724 18.5438L157.978 10.8571V10.6175ZM161.347 10.0276V9.78801L161.511 9.65897H161.749L161.877 9.82487L168.816 29.5299V29.7696L168.651 29.917H168.413L168.285 29.7511L161.347 10.0276ZM164.88 8.81105H165.118L165.264 8.97695L172.203 28.7004V28.9401L172.038 29.0875H171.8L171.653 28.9216L164.715 9.19814V8.95851L164.88 8.81105ZM168.084 8.12902L168.248 7.98156H168.486L168.633 8.14745L175.571 27.871V28.1106L175.406 28.2581H175.168L175.022 28.0922L168.084 8.36865V8.12902ZM171.452 7.29953L171.617 7.1705H171.855L171.983 7.33639L178.921 27.0415V27.2811L178.756 27.4101H178.519L178.39 27.2442L171.452 7.53916V7.29953ZM125.099 40.3687V40.6083L124.934 40.7558H124.696L124.55 40.5899L117.611 20.8663V20.6267L117.776 20.4977H118.014L118.142 20.6636L125.081 40.3871L125.099 40.3687ZM131.488 17.1613L131.634 17.3272L138.573 37.0322V37.2719L138.408 37.4193H138.17L138.042 37.2534L131.104 17.5484V17.3087L131.268 17.1797H131.506L131.488 17.1613ZM134.435 16.7189V16.4793L134.6 16.3502H134.838L134.985 16.5161L141.923 36.2212V36.4608L141.758 36.5899H141.52L141.374 36.424L134.435 16.7189ZM120.961 20.0369V19.7972L121.126 19.6682H121.364L121.511 19.8341L128.449 39.5392V39.7788L128.284 39.9078H128.046L127.918 39.7419L120.98 20.0369H120.961ZM124.495 18.8203H124.733L124.879 18.9862L131.817 38.6912V38.9309L131.653 39.0783H131.415L131.268 38.9124L124.33 19.1889V18.9493L124.495 18.8018V18.8203ZM127.68 18.3779V18.1382L127.845 17.9908H128.083L128.211 18.1567L135.149 37.8802V38.1198L134.985 38.2673H134.747L134.618 38.1014L127.68 18.3779ZM137.786 15.8894V15.6498L137.95 15.5023H138.188L138.316 15.6682L145.255 35.3733V35.6129L145.09 35.7419H144.852L144.724 35.576L137.786 15.8525V15.8894ZM141.319 14.6728H141.557L141.685 14.8387L148.623 34.5622V34.8018L148.458 34.9493H148.221L148.092 34.7834L141.154 15.0783V14.8387L141.319 14.6912V14.6728ZM147.873 13.1428L148.037 13.0138H148.275L148.404 13.1797L151.021 20.6451V20.8848L150.857 21.0138H150.619L150.472 20.8479L147.854 13.3825V13.1428H147.873ZM144.504 13.9723L144.669 13.8433H144.907L145.053 14.0092L147.726 21.6221V21.8617L147.561 22.0092H147.323L147.177 21.8433L144.504 14.2304V13.9908V13.9723ZM174.839 6.5069L175.004 6.37787H175.242L175.388 6.54377L182.326 26.2488V26.4885L182.162 26.6175H181.924L181.777 26.4516L174.839 6.7281V6.48847V6.5069Z" fill="#ABA49E"/>
<path fill-rule="evenodd" clip-rule="evenodd" d="M205.814 46.5438L227.178 88.2396L215.7 90.9493L204.185 93.7143L192.633 96.4608L181.155 99.1705L169.53 101.917L158.051 104.645L146.536 107.355L135.021 110.101L113.547 68.4793L125.062 65.7327L136.577 63.0046L148.092 60.258L159.681 57.5115L171.196 54.8018L182.711 52.0553L194.226 49.3087L205.814 46.5438Z" fill="#5B8311"/>
<path fill-rule="evenodd" clip-rule="evenodd" d="M217.329 68.3318L226.995 87.1337L215.48 89.8802L203.965 92.6267L192.45 95.3917L180.935 98.0645L169.347 100.811L157.832 103.558L146.317 106.23L134.802 108.977L113.327 67.3549L124.843 64.6083L136.358 61.9355L147.873 59.189L159.461 56.4424L170.976 53.6774L182.491 50.9309L194.006 48.1843L205.594 45.4378L211.343 56.6636L217.329 68.3318Z" fill="url(#paint12_radial_66_759)"/>
<path fill-rule="evenodd" clip-rule="evenodd" d="M192.45 95.3917L180.935 98.0645L159.461 56.4424L170.976 53.6958L192.45 95.3917ZM182.491 50.9493L194.006 48.2028L215.48 89.8986L203.965 92.6452L182.491 50.9493ZM134.802 108.995L113.327 67.3548L124.843 64.6083L146.317 106.23L134.802 108.977V108.995ZM157.832 103.576L136.358 61.9539L147.873 59.2074L169.347 100.829L157.832 103.576Z" fill="url(#paint13_radial_66_759)"/>
<path d="M138.573 105.253L138.042 104.94L133.099 95.4101L122.81 75.6313L119.241 68.8479V68.3133L119.625 67.9815L160.962 58.4332H160.98L202.391 48.8848C202.647 48.8295 202.922 48.9585 203.05 49.1981L206.62 56.1843L217.677 77.7511L221.522 85.3825V85.8986L221.119 86.2304L180.056 95.705H180.038L138.683 105.253H138.554H138.573ZM134.509 95.5392L138.884 104L179.049 94.7281L160.797 59.705L120.632 68.9769L123.634 74.6728L143.589 70.0645C143.845 70.0092 144.12 70.1382 144.248 70.3779L154.555 90.1567V90.6728L154.17 91.0046L134.509 95.5392ZM124.202 75.7603L133.941 94.4516L153.145 90.0276L143.406 71.3364L124.202 75.7603ZM161.987 59.4286L180.239 94.4516L220.13 85.2534L216.835 78.7465L197.851 83.0783C197.594 83.1336 197.32 83.0046 197.192 82.765L185.988 61.2534V60.7189L186.372 60.3871L205.21 56.0553L202.189 50.1567L161.969 59.4286H161.987ZM187.416 61.364L198.052 81.788L216.304 77.6405L205.796 57.1613L187.416 61.3825V61.364Z" fill="white"/>
<path d="M161.969 69.2903L162.317 69.7696C164.404 68.2396 166.93 67.4654 169.933 67.4654C172.953 67.4654 175.461 68.2396 177.548 69.7696C179.635 71.318 180.587 73.0507 180.605 75.0968C180.605 77.1429 179.654 78.8756 177.548 80.424C175.461 81.9539 172.935 82.7281 169.933 82.7281C166.912 82.7281 164.404 81.9539 162.317 80.424C160.23 78.8756 159.278 77.1429 159.26 75.0968C159.26 73.0507 160.23 71.318 162.317 69.7696L161.969 69.2903L161.621 68.8111C159.315 70.4885 158.07 72.6452 158.088 75.0968C158.088 77.5668 159.333 79.7051 161.621 81.3825C163.928 83.0783 166.729 83.9078 169.933 83.9078C173.136 83.9078 175.937 83.0599 178.244 81.3825C180.551 79.7051 181.795 77.5484 181.777 75.0968C181.777 72.6267 180.551 70.4885 178.244 68.8111C175.937 67.1152 173.136 66.2673 169.933 66.2673C166.711 66.2673 163.928 67.1152 161.621 68.8111L161.969 69.2903Z" fill="white"/>
<path fill-rule="evenodd" clip-rule="evenodd" d="M182.052 104.59L172.715 106.876L171.544 107.152L165.63 106.876L172.441 102.783L173.942 101.548L180.679 103.06L183.077 104.313L182.052 104.59Z" fill="#937138"/>
<path fill-rule="evenodd" clip-rule="evenodd" d="M196.899 101.069L190.986 100.793L197.796 96.7005L200.395 95.5208L206.034 96.977L208.432 98.2304L207.407 98.5069L198.07 100.793L196.899 101.069Z" fill="#937138"/>
<path fill-rule="evenodd" clip-rule="evenodd" d="M187.397 91.0046C188.24 92.424 188.789 94.1567 189.045 96.1844C189.173 97.2535 189.21 98.3963 189.173 99.6498V100.83L188.624 99.5576L187.965 98.0277L188.587 97.1982C188.569 96.8111 188.532 96.424 188.477 96.0553C188.276 94.5254 187.91 93.1613 187.379 91.9816V91.0046H187.397Z" fill="#FFCC00"/>
<path fill-rule="evenodd" clip-rule="evenodd" d="M199.553 93.6959L200.615 93.4194C200.725 94.4885 200.761 95.6498 200.725 96.8848V97.9908L199.7 98.2304L190.363 100.553L189.191 100.83V99.6498C189.228 98.4148 189.191 97.2535 189.063 96.1843L190.235 95.9078L192.578 95.3549L194.903 94.8019L197.247 94.2489L199.59 93.6959H199.553Z" fill="#F08B00"/>
<path fill-rule="evenodd" clip-rule="evenodd" d="M197.979 88.4792C198.803 89.917 199.334 91.6498 199.553 93.6958L197.21 94.2488L194.867 94.8018L192.542 95.3548L190.198 95.9078C189.96 93.8617 189.411 92.1474 188.587 90.7097L190.967 90.1198L193.311 89.5668L195.434 89.0507L195.636 89.0138L197.979 88.4608V88.4792Z" fill="#D2DCEC"/>
<path fill-rule="evenodd" clip-rule="evenodd" d="M199.553 93.6959C199.315 91.6498 198.803 89.917 197.979 88.4793L199.004 88.2396C199.846 89.6774 200.377 91.4101 200.615 93.4193L199.553 93.6959ZM188.587 90.7281C189.411 92.1475 189.96 93.8802 190.198 95.9263L189.027 96.2028C188.77 94.1567 188.221 92.4424 187.379 91.023L188.587 90.7465V90.7281Z" fill="#F0A700"/>
<path fill-rule="evenodd" clip-rule="evenodd" d="M163.708 95.9078C164.55 97.3272 165.1 99.0599 165.356 101.106C165.484 102.175 165.521 103.336 165.484 104.571V105.751L164.935 104.479L164.276 102.949L164.898 102.12C164.88 101.733 164.843 101.346 164.788 100.977C164.587 99.4286 164.221 98.083 163.69 96.9032V95.9263L163.708 95.9078Z" fill="#FFCC00"/>
<path fill-rule="evenodd" clip-rule="evenodd" d="M175.864 98.5991L176.926 98.3226C177.036 99.3917 177.072 100.553 177.036 101.788V102.894L176.01 103.134L166.674 105.456L165.502 105.733V104.553C165.539 103.318 165.502 102.157 165.374 101.088L166.546 100.811L168.889 100.258L171.214 99.7051L173.557 99.1521L175.901 98.5991H175.864Z" fill="#F08B00"/>
<path fill-rule="evenodd" clip-rule="evenodd" d="M166.527 100.811C166.289 98.765 165.74 97.0507 164.916 95.6129L167.278 95.0231L169.621 94.4701L171.745 93.9539L171.946 93.9171L174.29 93.3641C175.113 94.8019 175.644 96.5346 175.864 98.5807L173.521 99.1337L171.177 99.6867L168.852 100.24L166.509 100.793L166.527 100.811Z" fill="#D2DCEC"/>
<path fill-rule="evenodd" clip-rule="evenodd" d="M175.864 98.599C175.626 96.553 175.113 94.8202 174.29 93.3825L175.315 93.1428C176.157 94.5806 176.688 96.3133 176.926 98.3225L175.864 98.599ZM164.898 95.6313C165.722 97.0507 166.271 98.7834 166.509 100.829L165.338 101.106C165.081 99.0599 164.532 97.3456 163.69 95.9078L164.898 95.6313Z" fill="#F0A700"/>
<path fill-rule="evenodd" clip-rule="evenodd" d="M187.764 31.6866L187.562 31.8156L187.288 31.6866L187.214 31.4838L187.288 31.2073L187.562 31.1336L187.764 31.2073L187.91 31.4838L187.764 31.6866ZM183.095 32.3133L183.242 32.5898L183.095 32.7926L182.894 32.9401L182.619 32.7926L182.546 32.5898L182.619 32.3133L182.894 32.2396L183.095 32.3133ZM183.37 34.2488L183.516 34.5253L183.37 34.7281L183.168 34.8755L182.894 34.7281L182.821 34.5253L182.894 34.2488L183.168 34.1751L183.37 34.2488ZM178.427 33.9723L178.226 34.1014L177.951 33.9723L177.878 33.7696L177.951 33.4931L178.226 33.4193L178.427 33.4931L178.555 33.7696L178.427 33.9723ZM178.152 35.6313L178.226 35.3548L178.5 35.2811L178.702 35.3548L178.83 35.6313L178.702 35.8341L178.5 35.9815L178.226 35.8341L178.152 35.6313ZM179.727 37.9908L179.58 38.1935L179.379 38.341L179.104 38.1935L179.031 37.9908L179.104 37.7143L179.379 37.6405L179.58 37.7143L179.727 37.9908ZM179.727 40.2765L179.928 40.3502L180.056 40.6267L179.928 40.8295L179.727 40.9769L179.452 40.8295L179.379 40.6267L179.452 40.3502L179.727 40.2765ZM187.837 33.0875L188.038 33.1613L188.166 33.4378L188.038 33.6405L187.837 33.7696L187.562 33.6405L187.489 33.4378L187.562 33.1613L187.837 33.0875ZM188.734 35.447L188.935 35.5207L189.082 35.7972L188.935 36L188.734 36.129L188.459 36L188.386 35.7972L188.459 35.5207L188.734 35.447ZM184.267 36.6267L184.395 36.9032L184.267 37.106L184.066 37.2534L183.791 37.106L183.718 36.9032L183.791 36.6267L184.066 36.553L184.267 36.6267ZM184.67 39.2626L184.816 39.5391L184.67 39.7419L184.468 39.8709L184.194 39.7419L184.12 39.5391L184.194 39.2626L184.468 39.1889L184.67 39.2626ZM189.484 38.4332L189.356 38.6359L189.155 38.7834L188.88 38.6359L188.807 38.4332L188.88 38.1567L189.155 38.0829L189.356 38.1567L189.484 38.4332ZM189.887 40.3686L190.162 40.2949L190.363 40.3686L190.491 40.6451L190.363 40.8479L190.162 40.9954L189.887 40.8479L189.814 40.6451L189.887 40.3686ZM192.23 30.0645L192.432 30.1382L192.578 30.4147L192.432 30.6175L192.23 30.7649L191.956 30.6175L191.883 30.4147L191.956 30.1382L192.23 30.0645ZM192.23 32.0737L192.505 32L192.706 32.0737L192.853 32.3502L192.706 32.553L192.505 32.7004L192.23 32.553L192.157 32.3502L192.23 32.0737ZM196.624 29.5115L196.551 29.3087L196.624 29.0322L196.899 28.9585L197.1 29.0322L197.228 29.3087L197.1 29.5115L196.899 29.659L196.624 29.5115ZM197.375 30.9677L197.503 31.2442L197.375 31.447L197.173 31.576L196.899 31.447L196.825 31.2442L196.899 30.9677L197.173 30.894L197.375 30.9677ZM193.603 34.4332L193.732 34.7096L193.603 34.9124L193.402 35.0599L193.127 34.9124L193.054 34.7096L193.127 34.4332L193.402 34.3594L193.603 34.4332ZM193.805 36.9954L194.006 37.0691L194.153 37.3456L194.006 37.5484L193.805 37.6774L193.53 37.5484L193.457 37.3456L193.53 37.0691L193.805 36.9954ZM194.83 39.2073L195.031 39.2811L195.16 39.5576L195.031 39.7603L194.83 39.8894L194.555 39.7603L194.482 39.5576L194.555 39.2811L194.83 39.2073ZM198.052 33.2534L198.253 33.3272L198.4 33.6037L198.253 33.8064L198.052 33.9539L197.777 33.8064L197.704 33.6037L197.777 33.3272L198.052 33.2534ZM198.125 36.2212L198.198 35.9447L198.473 35.8709L198.674 35.9447L198.803 36.2212L198.674 36.4239L198.473 36.5714L198.198 36.4239L198.125 36.2212ZM199.498 38.7834L199.224 38.6359L199.15 38.4332L199.224 38.1567L199.498 38.0829L199.7 38.1567L199.846 38.4332L199.7 38.6359L199.498 38.7834ZM199.7 40.6451L199.846 40.9216L199.7 41.1244L199.498 41.2719L199.224 41.1244L199.15 40.9216L199.224 40.6451L199.498 40.5714L199.7 40.6451ZM118.838 47.7788L118.691 47.9815L118.49 48.129L118.215 47.9815L118.142 47.7788L118.215 47.5023L118.49 47.4285L118.691 47.5023L118.838 47.7788ZM119.186 49.364L119.332 49.6405L119.186 49.8433L118.984 49.9908L118.71 49.8433L118.636 49.6405L118.71 49.364L118.984 49.2903L119.186 49.364ZM119.662 51.7235L119.863 51.7972L119.991 52.0737L119.863 52.2765L119.662 52.4055L119.387 52.2765L119.314 52.0737L119.387 51.7972L119.662 51.7235ZM114.517 50.9677L114.316 51.0967L114.041 50.9677L113.968 50.7649L114.041 50.4884L114.316 50.4147L114.517 50.4884L114.646 50.7649L114.517 50.9677ZM116.092 55.7419L115.945 55.9447L115.744 56.0921L115.469 55.9447L115.396 55.7419L115.469 55.4654L115.744 55.3917L115.945 55.4654L116.092 55.7419ZM120.412 54.9861L120.138 54.8571L120.064 54.6543L120.138 54.3779L120.412 54.3041L120.614 54.3779L120.76 54.6543L120.614 54.8571L120.412 54.9861ZM120.687 56.9216L120.76 56.6451L121.035 56.5714L121.236 56.6451L121.364 56.9216L121.236 57.1244L121.035 57.2534L120.76 57.1244L120.687 56.9216ZM117.044 59.9631L117.245 60.0368L117.373 60.3133L117.245 60.5161L117.044 60.6451L116.769 60.5161L116.696 60.3133L116.769 60.0368L117.044 59.9631ZM195.013 41.7696L195.141 42.0461L195.013 42.2488L194.812 42.3963L194.537 42.2488L194.464 42.0461L194.537 41.7696L194.812 41.6958L195.013 41.7696ZM190.143 42.8018L190.345 42.8755L190.473 43.152L190.345 43.3548L190.143 43.4838L189.869 43.3548L189.796 43.152L189.869 42.8755L190.143 42.8018ZM185.677 41.9723L185.475 42.1198L185.201 41.9723L185.127 41.7696L185.201 41.4931L185.475 41.4193L185.677 41.4931L185.823 41.7696L185.677 41.9723ZM185.127 44.258L185.201 43.9815L185.475 43.9078L185.677 43.9815L185.823 44.258L185.677 44.4608L185.475 44.6083L185.201 44.4608L185.127 44.258ZM180.807 42.5253L181.008 42.5991L181.136 42.8755L181.008 43.0783L180.807 43.2073L180.532 43.0783L180.459 42.8755L180.532 42.5991L180.807 42.5253ZM181.008 45.0875L181.136 45.364L181.008 45.5668L180.807 45.7143L180.532 45.5668L180.459 45.364L180.532 45.0875L180.807 45.0138L181.008 45.0875ZM135.259 53.3272L135.387 53.6037L135.259 53.8064L135.058 53.9539L134.783 53.8064L134.71 53.6037L134.783 53.3272L135.058 53.2534L135.259 53.3272ZM135.735 55.6129L135.937 55.6866L136.065 55.9631L135.937 56.1659L135.735 56.2949L135.461 56.1659L135.387 55.9631L135.461 55.6866L135.735 55.6129ZM132.715 44.682L132.513 44.811L132.239 44.682L132.165 44.4792L132.239 44.2027L132.513 44.129L132.715 44.2027L132.843 44.4792L132.715 44.682ZM128.046 45.788L127.845 45.9355L127.57 45.788L127.497 45.5852L127.57 45.3087L127.845 45.235L128.046 45.3087L128.193 45.5852L128.046 45.788ZM128.522 47.1705L128.669 47.447L128.522 47.6497L128.321 47.7972L128.046 47.6497L127.973 47.447L128.046 47.1705L128.321 47.0967L128.522 47.1705ZM133.337 46.341L133.209 46.5437L133.007 46.6912L132.733 46.5437L132.66 46.341L132.733 46.0645L133.007 45.9908L133.209 46.0645L133.337 46.341ZM133.337 48.7557L133.41 48.4792L133.685 48.4055L133.886 48.4792L134.014 48.7557L133.886 48.9585L133.685 49.106L133.41 48.9585L133.337 48.7557ZM122.902 46.894L122.829 46.6912L122.902 46.4147L123.177 46.341L123.378 46.4147L123.506 46.6912L123.378 46.894L123.177 47.0414L122.902 46.894ZM123.872 48.2765L124 48.553L123.872 48.7557L123.671 48.9032L123.396 48.7557L123.323 48.553L123.396 48.2765L123.671 48.2027L123.872 48.2765ZM124.55 51.1889L124.348 51.3364L124.074 51.1889L124 50.9861L124.074 50.7096L124.348 50.6359L124.55 50.7096L124.696 50.9861L124.55 51.1889ZM125.447 53.5484L125.319 53.7511L125.117 53.8802L124.843 53.7511L124.769 53.5484L124.843 53.2719L125.117 53.1981L125.319 53.2719L125.447 53.5484ZM125.923 55.5576L126.069 55.8341L125.923 56.0368L125.721 56.1843L125.447 56.0368L125.373 55.8341L125.447 55.5576L125.721 55.4838L125.923 55.5576ZM126.618 57.917L126.746 58.1935L126.618 58.3963L126.417 58.5437L126.142 58.3963L126.069 58.1935L126.142 57.917L126.417 57.8433L126.618 57.917ZM134.655 51.5576L134.454 51.705L134.179 51.5576L134.106 51.3548L134.179 51.0783L134.454 51.0046L134.655 51.0783L134.783 51.3548L134.655 51.5576ZM128.742 50.1014L128.669 49.8986L128.742 49.6221L129.017 49.5484L129.218 49.6221L129.346 49.8986L129.218 50.1014L129.017 50.2488L128.742 50.1014ZM129.438 52.4608L129.511 52.1843L129.785 52.1106L129.987 52.1843L130.133 52.4608L129.987 52.6636L129.785 52.7926L129.511 52.6636L129.438 52.4608ZM130.06 54.7465L130.133 54.47L130.408 54.3963L130.609 54.47L130.756 54.7465L130.609 54.9493L130.408 55.0967L130.133 54.9493L130.06 54.7465ZM131.085 56.7557L131.287 56.8295L131.433 57.106L131.287 57.3087L131.085 57.4562L130.811 57.3087L130.737 57.106L130.811 56.8295L131.085 56.7557ZM121.749 58.9677L121.95 59.0414L122.096 59.3179L121.95 59.5207L121.749 59.6497L121.474 59.5207L121.401 59.3179L121.474 59.0414L121.749 58.9677Z" fill="#993300"/>
<path fill-rule="evenodd" clip-rule="evenodd" d="M144.852 40.6636L145.053 40.7374L145.182 41.0139L145.053 41.2166L144.852 41.3641L144.577 41.2166L144.504 41.0139L144.577 40.7374L144.852 40.6636ZM149.722 39.6314L149.868 39.9079L149.722 40.1106L149.52 40.2581L149.246 40.1106L149.172 39.9079L149.246 39.6314L149.52 39.5576L149.722 39.6314ZM154.189 38.4516L154.39 38.5254L154.518 38.8019L154.39 39.0046L154.189 39.1521L153.914 39.0046L153.841 38.8019L153.914 38.5254L154.189 38.4516ZM154.39 40.3871L154.665 40.3134L154.866 40.3871L155.012 40.6636L154.866 40.8664L154.665 41.0139L154.39 40.8664L154.317 40.6636L154.39 40.3871ZM159.058 37.4194L159.186 37.6959L159.058 37.8986L158.857 38.0461L158.582 37.8986L158.509 37.6959L158.582 37.4194L158.857 37.3456L159.058 37.4194ZM159.534 39.7788L159.333 39.9079L159.058 39.7788L158.985 39.5761L159.058 39.2996L159.333 39.2258L159.534 39.2996L159.681 39.5761L159.534 39.7788ZM163.727 36.3134L163.873 36.5899L163.727 36.7927L163.525 36.9401L163.251 36.7927L163.177 36.5899L163.251 36.3134L163.525 36.2397L163.727 36.3134ZM163.653 38.4516L163.727 38.1751L164.001 38.1014L164.202 38.1751L164.331 38.4516L164.202 38.6544L164.001 38.8019L163.727 38.6544L163.653 38.4516ZM164.55 40.5346L164.752 40.6083L164.898 40.8848L164.752 41.0876L164.55 41.2351L164.276 41.0876L164.202 40.8848L164.276 40.6083L164.55 40.5346ZM168.193 35.8341L167.919 35.7051L167.846 35.5023L167.919 35.2258L168.193 35.1521L168.395 35.2258L168.541 35.5023L168.395 35.7051L168.193 35.8341ZM168.669 37.6959L168.395 37.5484L168.322 37.3456L168.395 37.0692L168.669 36.9954L168.871 37.0692L168.999 37.3456L168.871 37.5484L168.669 37.6959ZM168.944 39.5023L169.219 39.4286L169.42 39.5023L169.566 39.7788L169.42 39.9816L169.219 40.1291L168.944 39.9816L168.871 39.7788L168.944 39.5023ZM169.493 42.6175L169.42 42.4148L169.493 42.1383L169.768 42.0645L169.969 42.1383L170.116 42.4148L169.969 42.6175L169.768 42.7466L169.493 42.6175ZM170.518 44.4056L170.647 44.6821L170.518 44.8848L170.317 45.0323L170.042 44.8848L169.969 44.6821L170.042 44.4056L170.317 44.3318L170.518 44.4056ZM170.518 46.8203L170.793 46.7466L170.994 46.8203L171.141 47.0968L170.994 47.2996L170.793 47.447L170.518 47.2996L170.445 47.0968L170.518 46.8203ZM165.301 43.2258L165.447 43.5023L165.301 43.7051L165.1 43.8526L164.825 43.7051L164.752 43.5023L164.825 43.2258L165.1 43.1521L165.301 43.2258ZM160.633 44.8111L160.431 44.9586L160.157 44.8111L160.083 44.6083L160.157 44.3318L160.431 44.2581L160.633 44.3318L160.779 44.6083L160.633 44.8111ZM161.182 46.6175L161.328 46.894L161.182 47.0968L160.98 47.2443L160.706 47.0968L160.633 46.894L160.706 46.6175L160.98 46.5438L161.182 46.6175ZM161.658 49.0323L161.804 49.3088L161.658 49.5115L161.456 49.659L161.182 49.5115L161.109 49.3088L161.182 49.0323L161.456 48.9586L161.658 49.0323ZM165.649 46.1198L165.374 45.9724L165.301 45.7696L165.374 45.4931L165.649 45.4194L165.85 45.4931L165.978 45.7696L165.85 45.9724L165.649 46.1198ZM165.85 47.9079L166.125 47.8341L166.326 47.9079L166.454 48.1844L166.326 48.3871L166.125 48.5346L165.85 48.3871L165.777 48.1844L165.85 47.9079ZM159.864 41.6221L160.065 41.6959L160.212 41.9724L160.065 42.1751L159.864 42.3226L159.589 42.1751L159.516 41.9724L159.589 41.6959L159.864 41.6221ZM155.397 42.8019L155.525 43.0784L155.397 43.2811L155.195 43.4102L154.921 43.2811L154.848 43.0784L154.921 42.8019L155.195 42.7281L155.397 42.8019ZM155.745 46.0461L155.47 45.9171L155.397 45.7143L155.47 45.4378L155.745 45.3641L155.946 45.4378L156.074 45.7143L155.946 45.9171L155.745 46.0461ZM156.495 48.1844L156.294 48.3318L156.019 48.1844L155.946 47.9816L156.019 47.7051L156.294 47.6314L156.495 47.7051L156.623 47.9816L156.495 48.1844ZM150.179 41.9539L149.978 42.083L149.703 41.9539L149.63 41.7512L149.703 41.4747L149.978 41.4009L150.179 41.4747L150.308 41.7512L150.179 41.9539ZM150.527 43.8157L150.729 43.8894L150.875 44.1659L150.729 44.3687L150.527 44.5162L150.253 44.3687L150.179 44.1659L150.253 43.8894L150.527 43.8157ZM146.61 48.1106L146.408 48.2397L146.134 48.1106L146.06 47.9079L146.134 47.6314L146.408 47.5576L146.61 47.6314L146.738 47.9079L146.61 48.1106ZM151.076 47.1337L150.802 46.9862L150.729 46.7834L150.802 46.5069L151.076 46.4332L151.278 46.5069L151.424 46.7834L151.278 46.9862L151.076 47.1337ZM151.278 49.0692L151.351 48.7927L151.626 48.7189L151.827 48.7927L151.955 49.0692L151.827 49.2719L151.626 49.4194L151.351 49.2719L151.278 49.0692ZM152.303 51.7051L152.102 51.8526L151.827 51.7051L151.754 51.5023L151.827 51.2258L152.102 51.1521L152.303 51.2258L152.449 51.5023L152.303 51.7051ZM146.939 50.5254L146.664 50.3963L146.591 50.1936L146.664 49.9171L146.939 49.8433L147.14 49.9171L147.287 50.1936L147.14 50.3963L146.939 50.5254ZM147.635 52.3318L147.763 52.6083L147.635 52.8111L147.433 52.9401L147.159 52.8111L147.085 52.6083L147.159 52.3318L147.433 52.2581L147.635 52.3318ZM157.118 50.3963L156.99 50.5991L156.788 50.7466L156.514 50.5991L156.44 50.3963L156.514 50.1198L156.788 50.0461L156.99 50.1198L157.118 50.3963ZM145.511 42.5807L145.658 42.8572L145.511 43.0599L145.31 43.189L145.035 43.0599L144.962 42.8572L145.035 42.5807L145.31 42.5069L145.511 42.5807ZM145.859 44.9401L146.06 45.0139L146.188 45.2903L146.06 45.4931L145.859 45.6406L145.584 45.4931L145.511 45.2903L145.584 45.0139L145.859 44.9401ZM140.147 42.3779L139.873 42.2304L139.799 42.0277L139.873 41.7512L140.147 41.6774L140.349 41.7512L140.477 42.0277L140.349 42.2304L140.147 42.3779ZM140.623 43.6314L140.825 43.7051L140.971 43.9816L140.825 44.2028L140.623 44.3318L140.349 44.2028L140.275 43.9816L140.349 43.7051L140.623 43.6314ZM141.52 46.3963L141.374 46.5991L141.172 46.7466L140.898 46.5991L140.825 46.3963L140.898 46.1198L141.172 46.0461L141.374 46.1198L141.52 46.3963ZM141.923 48.7558L142.069 49.0323L141.923 49.235L141.722 49.3825L141.447 49.235L141.374 49.0323L141.447 48.7558L141.722 48.6821L141.923 48.7558ZM141.996 51.0415L142.271 50.9678L142.472 51.0415L142.6 51.318L142.472 51.5208L142.271 51.6498L141.996 51.5208L141.923 51.318L141.996 51.0415ZM142.747 53.4009L142.948 53.4747L143.095 53.7512L142.948 53.9539L142.747 54.1014L142.472 53.9539L142.399 53.7512L142.472 53.4747L142.747 53.4009Z" fill="#B67A09"/>
<path fill-rule="evenodd" clip-rule="evenodd" d="M157.209 26.341C158.399 26.0645 159.406 26.2489 160.248 26.894C161.09 27.5576 161.511 28.4977 161.511 29.7327C161.511 30.9678 161.09 32.0922 160.248 33.1429C159.424 34.212 158.417 34.8756 157.209 35.1521C156.019 35.447 155.012 35.2443 154.17 34.5807C153.346 33.9355 152.925 32.9954 152.925 31.7604C152.925 30.5254 153.346 29.4009 154.17 28.3318C155.012 27.2811 156.019 26.6175 157.209 26.3226V26.341ZM156.825 31.8157V31.8526L156.861 31.8157H156.825Z" fill="#C5B5B5"/>
<path fill-rule="evenodd" clip-rule="evenodd" d="M158.692 32.5161L158.619 32.4424V32.5161L158.271 32.6636L158.198 32.4608L158.051 32.3871V32.1843L157.978 31.7604L158.326 31.5576L159.351 28.3134L159.9 28.2396L160.303 28.4424L159.479 30.9309L160.651 30.3042L161.2 30.5069L160.926 31.1889L159.003 32.2949L158.93 32.5714L158.655 32.4977L158.692 32.5161ZM162.335 30.5806C162.335 29.6221 162.024 28.9032 161.365 28.4424C160.724 27.8894 159.955 27.7235 159.04 27.9631C158.07 28.2028 157.282 28.7189 156.642 29.5484C156.001 30.3226 155.671 31.2074 155.671 32.1843C155.671 33.1613 156.001 33.8802 156.642 34.3963C157.282 34.9493 158.088 35.1152 159.04 34.8756C159.955 34.6544 160.742 34.1198 161.365 33.2903C162.006 32.4608 162.335 31.5576 162.335 30.5991V30.5806ZM162.061 27.5392C162.884 28.2212 163.305 29.1797 163.305 30.3779C163.305 31.576 162.884 32.7558 162.061 33.7696C161.237 34.8756 160.23 35.576 159.04 35.8525C157.85 36.129 156.825 35.9263 155.946 35.2258C155.122 34.6175 154.719 33.6959 154.719 32.4608C154.719 31.2258 155.122 30.1014 155.946 28.9954C156.806 27.9263 157.85 27.2627 159.04 26.9862C160.23 26.7097 161.237 26.894 162.061 27.5392Z" fill="white"/>
<path fill-rule="evenodd" clip-rule="evenodd" d="M158.637 32.5161H158.71L158.985 32.5899L159.058 32.3134L160.98 31.2074L161.255 30.5253L160.706 30.3226L159.534 30.9493L160.358 28.4608L159.955 28.2581L159.406 28.3318L158.381 31.576L158.033 31.7788L158.106 32.2028V32.4055L158.253 32.4793L158.326 32.682L158.674 32.5346L158.637 32.5161ZM162.353 30.5806C162.353 31.5576 162.042 32.4424 161.383 33.2719C160.742 34.1014 159.974 34.6359 159.058 34.8571C158.088 35.0968 157.301 34.9309 156.66 34.3779C156.019 33.8617 155.69 33.1244 155.69 32.1659C155.69 31.2074 156.019 30.3226 156.66 29.53C157.301 28.7005 158.106 28.1659 159.058 27.9447C159.974 27.7235 160.761 27.871 161.383 28.424C162.024 28.8848 162.353 29.6037 162.353 30.5622V30.5806Z" fill="#CC0000"/>
<path fill-rule="evenodd" clip-rule="evenodd" d="M212.35 54.5069L213.869 60.3871V60.7926L213.521 61.0691L213.174 60.9954L212.899 60.7189V60.6452L211.526 55.0415H209.805L214.126 63.4101H216.743L217.018 63.5576L217.164 63.6313L217.238 63.8341L218.757 69.788L218.684 70.1382L218.409 70.4147L217.988 70.341L217.787 70.1382V70.0645L216.341 64.3871H214.345V71.0968L214.199 71.447L213.851 71.6498H213.704L213.503 71.447L213.357 71.0968V64.0369L211.709 60.9217L209.439 56.6267V61.7512L209.292 62.1014L208.945 62.2304L208.597 62.1014L208.469 61.7512V54.4147L208.542 54.341L208.743 54.1382L208.945 54.0645H211.837L212.185 54.212L212.331 54.4885L212.35 54.5069ZM131.36 91.9263L131.232 91.576V84.7373L128.888 85.9539L128.687 86.0645L127.936 93.0507L127.735 93.4009L127.387 93.4747L127.039 93.2719L126.966 92.9217L127.717 85.659L127.79 85.4562L127.991 85.2535L128.412 85.0507L131.03 83.7972L127.387 76.6636V81.788L127.186 82.1382L127.021 82.2488L126.856 82.2857L126.508 82.1382L126.399 82.0092L126.362 81.8065V75.447L123.891 76.7005L123.14 83.5392V83.6866L122.939 84.0369L122.591 84.1106L122.243 83.9631L122.17 83.5576L122.92 76.2949L122.994 76.0922L123.195 75.9631L126.637 74.2304H127.039L127.241 74.3779L127.314 74.4516V74.5253L132.129 83.7972L132.202 83.871V91.6866L132.055 92.0369L131.781 92.1659H131.708L131.36 92.0369V91.9263Z" fill="white"/>
<path fill-rule="evenodd" clip-rule="evenodd" d="M209.476 61.5668V56.6636L211.746 60.9585L209.476 61.5852V61.5668ZM217.787 70.1567L214.217 71.4654L214.364 71.1152V64.4055H216.359L217.805 70.0829V70.1567H217.787ZM212.368 54.5253L217.183 63.6498L217.036 63.576L216.762 63.4286H214.144L209.823 55.0599H211.544L212.917 60.6636V60.7373L213.192 61.0138L213.54 61.0875L213.888 60.811V60.4055L212.368 54.5253ZM126.38 81.9723L123.122 83.5023L123.872 76.6636L126.344 75.4101V81.7696L126.38 81.9723Z" fill="#C3E29F"/>
<path fill-rule="evenodd" clip-rule="evenodd" d="M127.003 82.212L127.168 82.1014L127.369 81.7511V76.6267L131.012 83.7603L128.394 85.0138L126.984 82.212H127.003ZM131.232 91.0415L128.888 85.9539L131.232 84.7373V91.023V91.0415Z" fill="#A4D36E"/>
<path fill-rule="evenodd" clip-rule="evenodd" d="M131.213 91.023V91.576L131.342 91.9263L127.9 93.0323L128.65 86.0461L128.852 85.9355L131.195 91.023H131.213ZM126.948 92.8848L122.554 84.0369L122.902 83.9631L123.103 83.6129V83.4654L126.362 81.9355L126.472 82.0645L126.82 82.212L126.984 82.1751L128.394 84.977L127.973 85.1797L127.772 85.3825L127.698 85.5853L126.948 92.8479V92.8848Z" fill="#B1D786"/>
<path fill-rule="evenodd" clip-rule="evenodd" d="M155.781 81.2166C154.939 81.7143 153.896 81.9724 152.687 81.9724C151.479 81.9724 150.417 81.7143 149.52 81.2166C148.678 80.7558 148.239 80.2028 148.239 79.5208C148.239 78.8387 148.66 78.2489 149.52 77.7512C150.417 77.3088 151.479 77.0692 152.687 77.0692C153.896 77.0692 154.939 77.2903 155.781 77.7512C156.678 78.2489 157.136 78.8387 157.136 79.5208C157.136 80.2028 156.697 80.7558 155.781 81.2166Z" fill="#45A811"/>
<path fill-rule="evenodd" clip-rule="evenodd" d="M154.353 69.9355L153.383 70.1751L153.951 72.7742L152.742 73.5852H151.131L150.399 72.7004V69.2903L152.98 68.3134L154.28 69.1244L154.353 69.9355Z" fill="#371A0E"/>
<path fill-rule="evenodd" clip-rule="evenodd" d="M151.864 76.3502L151.699 74.3226L152.266 74.2488L152.504 76.1106L151.864 76.3502ZM150.582 76.424C151.973 77.1797 153.383 77.106 154.774 76.1843L154.848 77.3272L155.415 77.8986L153.804 78.7097L153.475 78.2304L151.699 78.7097L151.461 79.1152L150.088 78.1382L150.729 76.8479L150.564 76.4424L150.582 76.424ZM151.314 79.4286L150.838 80.3134L150.033 80.3871L149.465 79.2442L150.106 79.1705V78.6728L151.314 79.4101V79.4286ZM154.06 79.0599L155.8 78.2857L156.239 78.765L155.195 80.553L153.658 80.2212L154.225 79.2442L154.06 79.0415V79.0599Z" fill="white"/>
<path fill-rule="evenodd" clip-rule="evenodd" d="M154.518 72.4608L153.951 72.7926L153.383 70.1936L154.353 69.9539L154.518 72.4793V72.4608ZM155.397 77.9171L155.763 78.3226L154.024 79.0968L153.786 78.7281L155.397 77.9171ZM149.099 76.129L149.429 76.8664L148.056 77.0323L148.385 76.1475L149.026 76.3134L149.099 76.1475V76.129ZM156.697 72.9585L156.623 71.9078L157.996 72.7189L157.099 73.3641L156.697 72.9585ZM150.07 78.1567L151.443 79.1336L151.278 79.4654L150.07 78.7281V78.1567Z" fill="#C8A15B"/>
<path fill-rule="evenodd" clip-rule="evenodd" d="M149.429 79.2811L149.996 80.424L149.923 80.9032L148.953 79.6867L149.447 79.2811H149.429ZM155.159 80.5899L155.488 81.0691L153.31 80.8295L153.639 80.2581L155.177 80.5899H155.159Z" fill="#160F02"/>
<path fill-rule="evenodd" clip-rule="evenodd" d="M156.697 72.9401L157.099 73.3456L157.575 73.917L155.562 75.4654L154.591 74.4885L154.756 76.2028C153.346 77.1244 151.955 77.1981 150.564 76.4424L150.491 76.2765V74.4885L149.52 74.894L149.118 76.1106L149.044 76.2765L148.404 76.1106L148.239 76.0369L148.642 73.917L150.417 73.4378V72.7004L151.15 73.5852H152.761L153.969 72.7742L154.536 72.4424L154.61 73.0875L155.818 73.9723L156.697 72.9216V72.9401ZM151.845 76.3502L152.486 76.1106L152.248 74.2488L151.681 74.3226L151.845 76.3502Z" fill="#A91D00"/>
<path fill-rule="evenodd" clip-rule="evenodd" d="M184.651 64.3133C183.864 64.7742 182.93 64.9954 181.814 64.9954C180.697 64.9954 179.745 64.7742 178.921 64.3133C178.134 63.9078 177.75 63.3733 177.75 62.765C177.75 62.1567 178.134 61.6037 178.921 61.1613C179.745 60.7373 180.715 60.5345 181.814 60.5345C182.912 60.5345 183.864 60.7373 184.651 61.1613C185.475 61.6221 185.878 62.1567 185.878 62.765C185.878 63.3733 185.457 63.9078 184.651 64.3133Z" fill="#85B41A"/>
<path fill-rule="evenodd" clip-rule="evenodd" d="M185.255 58.4516L182.436 59.0968L181.301 58.4516L181.136 58.2857L181.21 55.5945V55.0231L182.015 56L184.761 55.2627L184.834 57.9539L185.31 56.6452L185.237 58.4332L185.255 58.4516ZM186.299 60.7189V60.6452L186.775 59.8341L187.104 60.1659L186.775 60.8111L186.702 60.8848L186.299 60.7189ZM183.718 62.1014L185.164 62.2673V62.4332L183.718 62.3595V62.1198V62.1014ZM180.972 61.8618L182.271 62.0277V62.2673L180.972 62.1936V61.8618ZM180.239 56.977L179.342 58.1198L179.013 57.788L179.507 56.9033L179.104 56.2581L179.342 56.0185L179.745 56.5899L179.91 56.6636L180.239 56.9954V56.977Z" fill="#F5C589"/>
<path fill-rule="evenodd" clip-rule="evenodd" d="M185.164 61.3825C183.04 61.4562 181.667 61.3272 181.045 60.9769V59.3548L179.342 58.1382L180.239 56.9954L181.118 58.3041L181.283 58.47L182.418 59.1152L185.237 58.47L185.731 58.7096L186.775 59.8525L186.299 60.6636V60.7373L185.255 59.5944L185.182 61.3825H185.164ZM183.864 59.5944H184.505L184.011 59.1152L183.846 59.5944H183.864Z" fill="#3081D0"/>
<path fill-rule="evenodd" clip-rule="evenodd" d="M185.329 56.6636L184.853 57.9723L184.779 55.2811L182.033 56.0184L181.228 55.0415V55.6129L180.898 54.47C182.345 54.0461 184.029 54.1567 185.896 54.8018L185.329 56.682V56.6636Z" fill="#9E6823"/>
<path fill-rule="evenodd" clip-rule="evenodd" d="M185.164 63.5023L183.461 63.4286L183.699 62.3779L185.146 62.4516V63.5023H185.164ZM182.345 63.2627H180.898L180.972 62.212L182.271 62.2857L182.345 63.2627ZM183.882 59.5945L184.047 59.1152L184.541 59.5945H183.901H183.882Z" fill="white"/>
<path fill-rule="evenodd" clip-rule="evenodd" d="M181.045 60.9769C181.667 61.3272 183.04 61.4562 185.164 61.3825V62.2672L183.718 62.1013L183.644 61.6958L182.271 61.6221V62.0276L180.972 61.8617L181.045 60.9769ZM183.461 63.4101L185.164 63.4838L184.834 64.0553L183.388 64.0184L183.461 63.4101ZM180.88 63.2442H182.326V63.6497L180.551 63.7235L180.88 63.2442Z" fill="#0A2946"/>
<path fill-rule="evenodd" clip-rule="evenodd" d="M161.347 67.4839H161.548L162.024 67.5392L161.731 67.7235L161.548 67.8341L161.347 67.4839ZM163.067 68.3134L163.159 68.4608V68.5161V68.5346V68.6452V68.8295L162.976 68.7189L162.921 68.682H162.884L163.086 68.3134H163.067ZM161.676 68.4793H161.713L162.445 68.977L162.518 69.0138L162.482 69.1613L162.317 69.788L161.53 69.9171L161.072 69.3456V69.3088L161.676 68.4424V68.4793ZM160.23 68.7189H160.248L160.303 68.8848L160.486 69.3272V69.3825L160.541 69.4378L160.376 69.6406L160.212 69.4009C160.083 69.1797 160.029 68.9585 160.029 68.682L160.23 68.7189Z" fill="#333333"/>
<path fill-rule="evenodd" clip-rule="evenodd" d="M163.141 68.8295C163.104 69.1797 162.958 69.4931 162.683 69.7512C162.372 70.0645 162.006 70.2304 161.585 70.2304C161.164 70.2304 160.779 70.083 160.486 69.7512L160.395 69.6406L160.559 69.4378V69.3825H161.072L161.53 69.9539L162.317 69.8249L162.482 69.1982L162.958 68.7373L163.141 68.8479V68.8295ZM161.054 69.3456H160.486L160.303 68.8848L160.504 68.2396L160.212 68.7189L160.01 68.682V68.6452L160.047 68.2581L160.266 68L160.889 67.5761H160.944L161.328 67.4839L161.53 67.8341L161.658 68.4793L161.054 69.3456ZM162.024 67.5392C162.317 67.6129 162.573 67.7604 162.793 68L163.049 68.3134L162.848 68.6636H162.884L162.445 68.977L161.713 68.4793V67.7051L162.024 67.5208V67.5392Z" fill="#F2F0F0"/>
<path fill-rule="evenodd" clip-rule="evenodd" d="M163.214 69.9539L162.958 70.0645L162.921 70.4148L162.811 70.5254C162.591 70.7465 162.353 70.894 162.097 70.9862L161.42 70.5438L160.999 70.9678C160.742 70.8756 160.504 70.7281 160.303 70.5254C160.102 70.3226 159.955 70.083 159.864 69.8249L160.175 69.9171L160.413 69.6406L160.504 69.7512C160.816 70.0645 161.182 70.2304 161.603 70.2304C162.024 70.2304 162.408 70.083 162.701 69.7512C162.958 69.4931 163.104 69.1797 163.159 68.8295L163.305 68.9217L163.342 69.2903C163.342 69.53 163.305 69.7696 163.214 69.9724V69.9539ZM160.083 68.2581L160.047 68.6452V68.682H159.882L160.083 68.2581ZM161.566 67.8525L161.749 67.7419V68.5161L161.694 68.4793L161.566 67.8525ZM161.072 69.3456V69.3825H160.541L160.523 69.3272H161.09L161.072 69.3456ZM162.463 69.0138L162.903 68.7189L162.958 68.7558L162.482 69.2166L162.518 69.0691L162.445 69.0323L162.463 69.0138ZM160.248 68.7373L160.541 68.2581L160.34 68.9032L160.285 68.7558H160.266L160.248 68.7373Z" fill="#DDDADA"/>
<path fill-rule="evenodd" clip-rule="evenodd" d="M163.305 68.9032L163.159 68.811V68.6267V68.5161V68.4424V68.4793H163.177L163.305 68.8848V68.9032ZM162.921 70.4147L162.958 70.0645L163.214 69.9539L162.921 70.4147ZM160.999 70.9862L161.42 70.5622L162.097 71.0046L161.566 71.0783L160.999 70.9862ZM160.395 69.6405L160.157 69.917L159.845 69.8249L159.754 69.2534L159.864 68.6267H160.028C160.028 68.9216 160.102 69.1428 160.212 69.364L160.376 69.6037L160.395 69.6405Z" fill="#161515"/>
<path fill-rule="evenodd" clip-rule="evenodd" d="M162.756 71.8894C162.518 72.0368 162.225 72.1106 161.877 72.1106C161.53 72.1106 161.237 72.0368 160.98 71.8894C160.742 71.7603 160.614 71.5945 160.614 71.4101C160.614 71.2258 160.742 71.0415 160.98 70.9124C161.237 70.7834 161.53 70.7281 161.877 70.7281C162.225 70.7281 162.518 70.8018 162.756 70.9124C163.013 71.0599 163.141 71.2258 163.141 71.4101C163.141 71.5945 163.013 71.7603 162.756 71.8894Z" fill="#85B41A"/>
</g>
<g clip-path="url(#clip2_66_759)">
<path opacity="0.3" d="M125.288 213.361C117.129 208.648 95.4637 196.171 95.4637 196.171H48.7821V250.48H95.3769C95.3769 250.48 118.24 237.258 125.288 233.238C132.337 229.217 133.448 218.075 125.288 213.361Z" fill="#FFFFFC"/>
<path d="M9.06202 156.175C5.72886 158.064 15.0339 159.242 15.0339 159.242L57.6879 131.481L19.8948 151.028C19.8948 151.028 9.72171 155.794 9.06202 156.175Z" fill="black"/>
<path d="M15.0339 159.762C15.0339 159.762 14.9992 159.762 14.9645 159.762C12.916 159.502 8.14193 158.74 7.82945 157.18C7.72529 156.643 8.05513 156.158 8.80162 155.725C9.47867 155.343 19.2525 150.768 19.6691 150.56L57.4449 131.031C57.6879 130.909 57.983 130.996 58.1393 131.221C58.2782 131.464 58.2087 131.758 57.9657 131.914L15.3291 159.676C15.3291 159.676 15.1381 159.762 15.0513 159.762H15.0339ZM48.6953 136.714L20.1378 151.496C17.2908 152.831 9.86059 156.331 9.32242 156.626C8.92314 156.851 8.87106 157.007 8.8537 157.007C9.0273 157.509 11.8397 158.307 14.9124 158.705L48.6953 136.714Z" fill="black"/>
<path d="M86.0371 149.053C80.8464 146.055 81.4367 134.427 71.3157 127.634C71.1074 127.478 69.8574 126.768 69.6491 126.664C66.3333 125.069 64.1633 125.312 62.5661 126.265C59.2851 128.223 19.374 151.254 19.374 151.254L48.7648 194.42L92.3215 169.241C92.3215 169.241 91.4014 152.137 86.0371 149.036V149.053Z" fill="black"/>
<path d="M48.7821 194.94C48.6085 194.94 48.4523 194.854 48.3481 194.715L18.9573 151.548C18.8705 151.427 18.8532 151.288 18.8879 151.15C18.9226 151.011 19.0094 150.89 19.1309 150.82C19.5302 150.595 59.0767 127.773 62.3057 125.849C64.3542 124.636 66.8194 124.757 69.8748 126.23C70.1005 126.334 71.3677 127.062 71.6281 127.235C77.5827 131.221 79.909 136.888 81.7839 141.445C83.1032 144.669 84.249 147.441 86.2975 148.637C91.8354 151.825 92.8076 168.548 92.8423 169.259C92.8423 169.449 92.7555 169.64 92.5819 169.726L49.0252 194.906C49.0252 194.906 48.8516 194.975 48.7648 194.975L48.7821 194.94ZM20.1205 151.427L48.921 193.745L91.7833 168.964C91.6271 166.642 90.4466 152.189 85.7767 149.503C83.4157 148.152 82.2179 145.206 80.8117 141.809C78.9889 137.39 76.732 131.88 71.0205 128.067C70.8296 127.929 69.6144 127.235 69.4234 127.149C66.6631 125.814 64.5625 125.676 62.8265 126.716C59.7885 128.535 24.6688 148.793 20.1205 151.427Z" fill="black"/>
<path d="M42.4804 174.232C37.2897 171.234 37.8799 159.606 27.7589 152.813C27.5506 152.657 26.3007 151.947 26.0924 151.843C15.9714 146.956 16.5616 159.277 11.3709 156.296C6.00662 153.212 5.08653 169.241 5.08653 169.241L48.7821 194.42C48.7821 194.42 47.862 177.317 42.4977 174.215L42.4804 174.232Z" fill="#ED8063"/>
<path d="M48.7821 194.94C48.6953 194.94 48.6085 194.923 48.5217 194.871L4.82613 169.692C4.65253 169.588 4.54837 169.415 4.56573 169.207C4.63517 168.028 5.32958 157.579 8.8537 155.673C9.70435 155.205 10.6418 155.257 11.6313 155.828C13.3673 156.834 14.218 155.88 15.711 153.992C17.5685 151.618 20.1205 148.377 26.318 151.375C26.5437 151.479 27.8284 152.224 28.0714 152.38C34.026 156.366 36.3522 162.032 38.2271 166.59C39.5465 169.813 40.6923 172.586 42.7408 173.781C48.2787 176.97 49.2509 193.693 49.2856 194.403C49.2856 194.594 49.1988 194.767 49.0425 194.871C48.9557 194.923 48.8689 194.94 48.7648 194.94H48.7821ZM5.6247 168.964L48.1919 193.502C47.8968 189.88 46.5774 177.195 42.2373 174.683C39.8764 173.331 38.6785 170.385 37.2723 166.988C35.4495 162.57 33.1927 157.059 27.4812 153.246C27.2902 153.108 26.075 152.415 25.884 152.328C20.4156 149.694 18.3497 152.328 16.5269 154.65C15.1381 156.418 13.7146 158.237 11.1105 156.747C10.4508 156.366 9.87795 156.331 9.35714 156.608C6.892 157.943 5.85038 165.689 5.6247 168.964Z" fill="black"/>
<path d="M48.7821 199.602L5.08653 174.423V169.241L48.7821 194.42V199.602Z" fill="white"/>
<path d="M48.7821 200.122C48.6953 200.122 48.6085 200.104 48.5217 200.052L4.82613 174.873C4.66989 174.787 4.56573 174.613 4.56573 174.423V169.241C4.56573 169.051 4.66989 168.877 4.82613 168.791C4.98237 168.704 5.19069 168.704 5.34694 168.791L49.0425 193.97C49.1988 194.057 49.3029 194.23 49.3029 194.42V199.602C49.3029 199.792 49.1988 199.966 49.0425 200.052C48.9557 200.104 48.8689 200.122 48.7821 200.122ZM5.60734 174.128L48.2613 198.701V194.715L5.60734 170.142V174.128Z" fill="black"/>
<path d="M48.7821 199.602L5.08653 174.423V218.577L48.7821 243.756V199.602Z" fill="#ED8063"/>
<path d="M48.7821 244.276C48.6953 244.276 48.6085 244.259 48.5217 244.207L4.82613 219.028C4.66989 218.941 4.56573 218.768 4.56573 218.577V174.423C4.56573 174.232 4.66989 174.059 4.82613 173.972C4.98237 173.885 5.19069 173.885 5.34694 173.972L49.0425 199.151C49.1988 199.238 49.3029 199.411 49.3029 199.602V243.756C49.3029 243.947 49.1988 244.12 49.0425 244.207C48.9557 244.259 48.8689 244.276 48.7821 244.276ZM5.60734 218.283L48.2613 242.855V199.896L5.60734 175.324V218.283Z" fill="black"/>
<path d="M48.7821 250.48L5.08653 225.301V218.577L48.7821 243.756V250.48Z" fill="black"/>
<path d="M48.7821 251C48.6953 251 48.6085 250.983 48.5217 250.931L4.82613 225.751C4.66989 225.665 4.56573 225.492 4.56573 225.301V218.577C4.56573 218.387 4.66989 218.213 4.82613 218.127C4.98237 218.04 5.19069 218.04 5.34694 218.127L49.0425 243.306C49.1988 243.393 49.3029 243.566 49.3029 243.756V250.48C49.3029 250.671 49.1988 250.844 49.0425 250.931C48.9557 250.983 48.8689 251 48.7821 251ZM5.60734 225.006L48.2613 249.579V244.051L5.60734 219.478V225.006Z" fill="black"/>
<path d="M32.8108 180.263L21.0406 173.487V158.099L32.8108 164.874V180.263Z" fill="#ED8063"/>
<path d="M32.8108 180.782C32.724 180.782 32.6372 180.765 32.5504 180.713L20.7801 173.937C20.6239 173.851 20.5197 173.677 20.5197 173.487V158.099C20.5197 157.908 20.6239 157.735 20.7801 157.648C20.9364 157.561 21.1447 157.561 21.301 157.648L33.0712 164.424C33.2274 164.51 33.3316 164.684 33.3316 164.874V180.263C33.3316 180.453 33.2274 180.626 33.0712 180.713C32.9844 180.765 32.8976 180.782 32.8108 180.782ZM21.5614 173.192L32.29 179.379V165.186L21.5614 159V173.192Z" fill="black"/>
<path d="M32.4115 209.445L21.4572 203.137V188.806L32.4115 195.114V209.445Z" fill="#ED8063"/>
<path d="M32.4115 209.965C32.3247 209.965 32.2379 209.947 32.1511 209.895L21.1968 203.588C21.0405 203.501 20.9364 203.328 20.9364 203.137V188.806C20.9364 188.615 21.0405 188.442 21.1968 188.355C21.353 188.269 21.5614 188.269 21.7176 188.355L32.6719 194.663C32.8281 194.75 32.9323 194.923 32.9323 195.114V209.445C32.9323 209.635 32.8281 209.809 32.6719 209.895C32.5851 209.947 32.4983 209.965 32.4115 209.965ZM21.978 202.825L31.8907 208.544V195.408L21.978 189.69V202.825Z" fill="black"/>
<path d="M45.1886 216.81L34.2343 210.485V196.171L45.1886 202.479V216.81Z" fill="#ED8063"/>
<path d="M45.1886 217.33C45.1018 217.33 45.015 217.312 44.9282 217.26L33.9739 210.952C33.8176 210.866 33.7135 210.692 33.7135 210.502V196.171C33.7135 195.98 33.8176 195.807 33.9739 195.72C34.1301 195.633 34.3385 195.633 34.4947 195.72L45.449 202.028C45.6052 202.115 45.7094 202.288 45.7094 202.478V216.81C45.7094 217 45.6052 217.174 45.449 217.26C45.3622 217.312 45.2754 217.33 45.1886 217.33ZM34.7551 210.19L44.6851 215.909V202.773L34.7551 197.054V210.19Z" fill="black"/>
<path d="M19.6344 202.08L8.68009 195.772V181.441L19.6344 187.749V202.08Z" fill="#ED8063"/>
<path d="M19.6344 202.6C19.5476 202.6 19.4608 202.582 19.374 202.53L8.41969 196.223C8.26345 196.136 8.15929 195.963 8.15929 195.772V181.441C8.15929 181.25 8.26345 181.077 8.41969 180.99C8.57593 180.904 8.78425 180.904 8.9405 180.99L19.8948 187.298C20.051 187.385 20.1552 187.558 20.1552 187.749V202.08C20.1552 202.271 20.051 202.444 19.8948 202.53C19.808 202.582 19.7212 202.6 19.6344 202.6ZM9.2009 195.46L19.1309 201.179V188.043L9.2009 182.325V195.46Z" fill="black"/>
<path d="M32.4115 226.757L21.4572 220.431V206.1L32.4115 212.425V226.757Z" fill="#ED8063"/>
<path d="M32.4115 227.276C32.3247 227.276 32.2379 227.259 32.1511 227.207L21.1968 220.899C21.0405 220.813 20.9364 220.639 20.9364 220.449V206.118C20.9364 205.927 21.0405 205.754 21.1968 205.667C21.353 205.58 21.5614 205.58 21.7176 205.667L32.6719 211.975C32.8281 212.061 32.9323 212.235 32.9323 212.425V226.757C32.9323 226.947 32.8281 227.12 32.6719 227.207C32.5851 227.259 32.4983 227.276 32.4115 227.276ZM21.978 220.137L31.8907 225.855V212.72L21.978 207.001V220.137Z" fill="black"/>
<path d="M45.1886 234.121L34.2343 227.796V213.465L45.1886 219.79V234.121Z" fill="#ED8063"/>
<path d="M45.1886 234.624C45.1018 234.624 45.015 234.607 44.9282 234.555L33.9739 228.247C33.8176 228.16 33.7135 227.987 33.7135 227.796V213.465C33.7135 213.275 33.8176 213.101 33.9739 213.015C34.1301 212.928 34.3385 212.928 34.4947 213.015L45.449 219.322C45.6052 219.409 45.7094 219.582 45.7094 219.773V234.104C45.7094 234.295 45.6052 234.468 45.449 234.555C45.3622 234.607 45.2754 234.624 45.1886 234.624ZM34.7551 227.484L44.6851 233.203V220.068L34.7551 214.349V227.484Z" fill="black"/>
<path d="M19.6344 219.392L8.68009 213.067V198.753L19.6344 205.061V219.392Z" fill="#ED8063"/>
<path d="M19.6344 219.912C19.5476 219.912 19.4608 219.894 19.374 219.842L8.41969 213.534C8.26345 213.448 8.15929 213.275 8.15929 213.084V198.753C8.15929 198.562 8.26345 198.389 8.41969 198.302C8.57593 198.216 8.78425 198.216 8.9405 198.302L19.8948 204.61C20.051 204.697 20.1552 204.87 20.1552 205.061V219.392C20.1552 219.582 20.051 219.756 19.8948 219.842C19.808 219.894 19.7212 219.912 19.6344 219.912ZM9.2009 212.772L19.1309 218.491V205.355L9.2009 199.637V212.772Z" fill="black"/>
<path d="M48.7821 199.602L92.4604 174.423V169.241L48.7821 194.42V199.602Z" fill="white"/>
<path d="M48.7821 200.122C48.6953 200.122 48.6085 200.104 48.5217 200.052C48.3655 199.966 48.2613 199.792 48.2613 199.602V194.42C48.2613 194.23 48.3655 194.057 48.5217 193.97L92.2173 168.791C92.3736 168.704 92.5819 168.704 92.7381 168.791C92.8944 168.877 92.9985 169.051 92.9985 169.241V174.423C92.9985 174.613 92.8944 174.787 92.7381 174.873L49.0425 200.052C49.0425 200.052 48.8689 200.122 48.7821 200.122ZM49.3029 194.732V198.718L91.9569 174.145V170.16L49.3029 194.732Z" fill="black"/>
<path d="M48.7821 199.602L92.4604 174.423V218.577L48.7821 243.756V199.602Z" fill="#D64F3C"/>
<path d="M48.7821 244.276C48.6953 244.276 48.6085 244.259 48.5217 244.207C48.3655 244.12 48.2613 243.947 48.2613 243.756V199.602C48.2613 199.411 48.3655 199.238 48.5217 199.151L92.2173 173.972C92.3736 173.885 92.5819 173.885 92.7381 173.972C92.8944 174.059 92.9985 174.232 92.9985 174.423V218.577C92.9985 218.768 92.8944 218.941 92.7381 219.028L49.0425 244.207C49.0425 244.207 48.8689 244.276 48.7821 244.276ZM49.3029 199.914V242.873L91.9569 218.3V175.324L49.3029 199.896V199.914Z" fill="black"/>
<path d="M48.7821 250.48L92.4604 225.301V218.577L48.7821 243.756V250.48Z" fill="black"/>
<path d="M48.7821 251C48.6953 251 48.6085 250.983 48.5217 250.931C48.3655 250.844 48.2613 250.671 48.2613 250.48V243.756C48.2613 243.566 48.3655 243.393 48.5217 243.306L92.2173 218.127C92.3736 218.04 92.5819 218.04 92.7381 218.127C92.8944 218.213 92.9985 218.387 92.9985 218.577V225.301C92.9985 225.492 92.8944 225.665 92.7381 225.751L49.0425 250.931C49.0425 250.931 48.8689 251 48.7821 251ZM49.3029 244.051V249.579L91.9569 225.006V219.478L49.3029 244.051Z" fill="black"/>
<path d="M65.1354 209.445L76.0897 203.137V188.806L65.1354 195.114V209.445Z" fill="#D64F3C"/>
<path d="M65.1354 209.965C65.0486 209.965 64.9618 209.947 64.875 209.895C64.7188 209.809 64.6146 209.635 64.6146 209.445V195.114C64.6146 194.923 64.7188 194.75 64.875 194.663L75.8293 188.355C75.9855 188.269 76.1939 188.269 76.3501 188.355C76.5064 188.442 76.6105 188.615 76.6105 188.806V203.137C76.6105 203.328 76.5064 203.501 76.3501 203.588L65.3958 209.895C65.3958 209.895 65.2222 209.965 65.1354 209.965ZM65.6562 195.426V208.561L75.5689 202.842V189.707L65.6562 195.426Z" fill="black"/>
<path d="M52.3583 216.81L63.33 210.485V196.171L52.3583 202.479V216.81Z" fill="#D64F3C"/>
<path d="M52.3583 217.33C52.2715 217.33 52.1847 217.312 52.0979 217.26C51.9417 217.174 51.8375 217 51.8375 216.81V202.478C51.8375 202.288 51.9417 202.115 52.0979 202.028L63.0522 195.72C63.2085 195.633 63.4168 195.633 63.573 195.72C63.7293 195.807 63.8334 195.98 63.8334 196.171V210.502C63.8334 210.692 63.7293 210.866 63.573 210.952L52.6187 217.26C52.6187 217.26 52.4451 217.33 52.3583 217.33ZM52.8791 202.79V215.926L62.7918 210.207V197.072L52.8791 202.79Z" fill="black"/>
<path d="M77.9125 202.08L88.8668 195.772V181.441L77.9125 187.749V202.08Z" fill="#D64F3C"/>
<path d="M77.9125 202.6C77.8257 202.6 77.7389 202.582 77.6521 202.53C77.4959 202.444 77.3917 202.271 77.3917 202.08V187.749C77.3917 187.558 77.4959 187.385 77.6521 187.298L88.6064 180.99C88.7626 180.904 88.971 180.904 89.1272 180.99C89.2835 181.077 89.3876 181.25 89.3876 181.441V195.772C89.3876 195.963 89.2835 196.136 89.1272 196.223L78.1729 202.53C78.1729 202.53 77.9993 202.6 77.9125 202.6ZM78.4333 188.061V201.196L88.3634 195.478V182.342L78.4333 188.061Z" fill="black"/>
<path d="M65.1354 226.757L76.0897 220.431V206.1L65.1354 212.425V226.757Z" fill="#D64F3C"/>
<path d="M65.1354 227.276C65.0486 227.276 64.9618 227.259 64.875 227.207C64.7188 227.12 64.6146 226.947 64.6146 226.757V212.425C64.6146 212.235 64.7188 212.061 64.875 211.975L75.8293 205.667C75.9855 205.58 76.1939 205.58 76.3501 205.667C76.5064 205.754 76.6105 205.927 76.6105 206.118V220.449C76.6105 220.639 76.5064 220.813 76.3501 220.899L65.3958 227.207C65.3958 227.207 65.2222 227.276 65.1354 227.276ZM65.6562 212.737V225.873L75.5689 220.154V207.019L65.6562 212.737Z" fill="black"/>
<path d="M90.6549 233.48L86.4885 235.872L80.0652 232.181L78.1382 226.809L90.6549 233.48Z" fill="white"/>
<path d="M86.4885 236.392C86.4017 236.392 86.3149 236.374 86.2281 236.322L79.8048 232.648C79.7006 232.579 79.6138 232.493 79.5791 232.371L77.6521 226.999C77.5827 226.791 77.6521 226.566 77.8084 226.427C77.9646 226.289 78.2077 226.254 78.3986 226.358L90.9327 233.012C91.1063 233.099 91.2104 233.272 91.2104 233.463C91.2104 233.654 91.1063 233.827 90.95 233.913L86.7662 236.305C86.7662 236.305 86.5926 236.374 86.5058 236.374L86.4885 236.392ZM80.4818 231.834L86.4885 235.265L89.5959 233.48L79.0757 227.883L80.4818 231.817V231.834Z" fill="black"/>
<path d="M52.3583 234.121L63.33 227.796V213.465L52.3583 219.79V234.121Z" fill="#D64F3C"/>
<path d="M52.3583 234.624C52.2715 234.624 52.1847 234.607 52.0979 234.555C51.9417 234.468 51.8375 234.295 51.8375 234.104V219.773C51.8375 219.582 51.9417 219.409 52.0979 219.322L63.0522 213.015C63.2085 212.928 63.4168 212.928 63.573 213.015C63.7293 213.101 63.8334 213.275 63.8334 213.465V227.796C63.8334 227.987 63.7293 228.16 63.573 228.247L52.6187 234.555C52.6187 234.555 52.4451 234.624 52.3583 234.624ZM52.8791 220.085V233.22L62.7918 227.502V214.366L52.8791 220.085Z" fill="black"/>
<path d="M77.9125 226.947L88.8668 220.639V198.753L77.9125 205.061V226.947Z" fill="#D64F3C"/>
<path d="M77.9125 227.467C77.8257 227.467 77.7389 227.45 77.6521 227.398C77.4959 227.311 77.3917 227.138 77.3917 226.947V205.061C77.3917 204.87 77.4959 204.697 77.6521 204.61L88.6064 198.302C88.7626 198.216 88.971 198.216 89.1272 198.302C89.2835 198.389 89.3876 198.562 89.3876 198.753V220.639C89.3876 220.83 89.2835 221.003 89.1272 221.09L78.1729 227.398C78.1729 227.398 77.9993 227.467 77.9125 227.467ZM78.4333 205.355V226.046L88.3634 220.327V199.637L78.4333 205.355Z" fill="black"/>
<path d="M78.1382 226.809L82.3047 229.2L93.1027 223.031L88.9189 220.639L78.1382 226.809Z" fill="white"/>
<path d="M82.3047 229.72C82.2179 229.72 82.1311 229.703 82.0443 229.651L77.8605 227.259C77.7042 227.172 77.6001 226.999 77.6001 226.809C77.6001 226.618 77.7042 226.445 77.8605 226.358L88.6411 220.171C88.7974 220.085 89.0057 220.085 89.1619 220.171L93.3457 222.563C93.502 222.65 93.6061 222.823 93.6061 223.013C93.6061 223.204 93.502 223.377 93.3457 223.464L82.5651 229.651C82.5651 229.651 82.3915 229.72 82.3047 229.72ZM79.1625 226.809L82.3047 228.611L92.0437 223.031L88.9015 221.229L79.1625 226.809Z" fill="black"/>
<path d="M82.3047 231.314L86.4885 233.706L97.2691 227.536L93.1027 225.145L82.3047 231.314Z" fill="white"/>
<path d="M86.4885 234.225C86.4017 234.225 86.3149 234.208 86.2281 234.156L82.0443 231.765C81.888 231.678 81.7839 231.505 81.7839 231.314C81.7839 231.124 81.888 230.95 82.0443 230.864L92.8249 224.677C92.9812 224.59 93.1895 224.59 93.3457 224.677L97.5296 227.069C97.6858 227.155 97.79 227.328 97.79 227.519C97.79 227.71 97.6858 227.883 97.5296 227.97L86.7489 234.156C86.7489 234.156 86.5753 234.225 86.4885 234.225ZM83.3463 231.314L86.4885 233.116L96.2275 227.536L93.0853 225.734L83.3463 231.314Z" fill="black"/>
<path d="M82.3047 231.331V229.2L93.1027 223.031V225.162L82.3047 231.331Z" fill="white"/>
<path d="M82.3047 231.851C82.2179 231.851 82.1311 231.834 82.0443 231.782C81.888 231.695 81.7839 231.522 81.7839 231.331V229.2C81.7839 229.009 81.888 228.836 82.0443 228.749L92.8249 222.563C92.9812 222.476 93.1895 222.476 93.3457 222.563C93.502 222.65 93.6061 222.823 93.6061 223.013V225.145C93.6061 225.336 93.502 225.509 93.3457 225.596L82.5651 231.782C82.5651 231.782 82.3915 231.851 82.3047 231.851ZM82.8255 229.512V230.448L92.5819 224.868V223.932L82.8255 229.512Z" fill="black"/>
<path d="M86.4885 235.872V233.74L97.2691 227.554V229.685L86.4885 235.872Z" fill="white"/>
<path d="M86.4885 236.392C86.4017 236.392 86.3149 236.374 86.2281 236.322C86.0718 236.236 85.9677 236.062 85.9677 235.872V233.74C85.9677 233.55 86.0718 233.376 86.2281 233.29L97.0087 227.103C97.165 227.017 97.3733 227.017 97.5296 227.103C97.6858 227.19 97.79 227.363 97.79 227.554V229.685C97.79 229.876 97.6858 230.049 97.5296 230.136L86.7489 236.322C86.7489 236.322 86.5753 236.392 86.4885 236.392ZM87.0093 234.035V234.971L96.7657 229.391V228.455L87.0093 234.035Z" fill="black"/>
<g style="mix-blend-mode:multiply">
<path d="M48.7821 233.81L11.9959 212.841L8.54121 197.505L45.3275 218.473L48.7821 233.81Z" fill="#BBBDBF"/>
</g>
<path d="M37.3071 224.036L0.520805 203.05L8.54121 197.505L45.3275 218.473L37.3071 224.036Z" fill="white"/>
<path d="M37.307 224.556C37.2202 224.556 37.1334 224.538 37.0466 224.486L0.260403 203.501C0.104161 203.414 0 203.258 0 203.068C0 202.894 0.0694407 202.721 0.225682 202.617L8.24609 197.054C8.40233 196.933 8.62801 196.933 8.80162 197.037L45.5879 218.023C45.7441 218.109 45.8483 218.265 45.8483 218.456C45.8483 218.629 45.7788 218.802 45.6226 218.906L37.6022 224.469C37.5154 224.521 37.4112 224.556 37.307 224.556ZM1.49298 203.016L37.2723 223.429L44.3553 218.525L8.55857 198.112L1.47562 203.016H1.49298Z" fill="black"/>
</g>
<defs>
<radialGradient id="paint0_radial_66_759" cx="0" cy="0" r="1" gradientUnits="userSpaceOnUse" gradientTransform="translate(288.822 218.849) scale(46.6908 46.6908)">
<stop stop-color="#AF5A14"/>
<stop offset="0.2" stop-color="#AF5A14"/>
<stop offset="1" stop-color="#7F3910"/>
</radialGradient>
<radialGradient id="paint1_radial_66_759" cx="0" cy="0" r="1" gradientUnits="userSpaceOnUse" gradientTransform="translate(289.265 214.534) scale(46.6908 46.6908)">
<stop stop-color="#B66618"/>
<stop offset="0.17" stop-color="#B66618"/>
<stop offset="1" stop-color="#A04F0E"/>
</radialGradient>
<linearGradient id="paint2_linear_66_759" x1="234.142" y1="227.572" x2="261.04" y2="215.568" gradientUnits="userSpaceOnUse">
<stop stop-color="#70300A"/>
<stop offset="1" stop-color="#A95812"/>
</linearGradient>
<radialGradient id="paint3_radial_66_759" cx="0" cy="0" r="1" gradientUnits="userSpaceOnUse" gradientTransform="translate(297.212 226.714) scale(5.5845 3.3726)">
<stop stop-color="#7F3B0A"/>
<stop offset="0.31" stop-color="#7F3B0A"/>
<stop offset="1" stop-color="#B26216"/>
</radialGradient>
<radialGradient id="paint4_radial_66_759" cx="0" cy="0" r="1" gradientUnits="userSpaceOnUse" gradientTransform="translate(301.668 177.725) scale(4.0077)">
<stop stop-color="#FCB859"/>
<stop offset="0.27" stop-color="#EA8900"/>
<stop offset="1" stop-color="#EA5D00"/>
</radialGradient>
<radialGradient id="paint5_radial_66_759" cx="0" cy="0" r="1" gradientUnits="userSpaceOnUse" gradientTransform="translate(125.774 51.2221) scale(15.3427 15.4485)">
<stop stop-color="#E75219"/>
<stop offset="1" stop-color="#C84513"/>
</radialGradient>
<radialGradient id="paint6_radial_66_759" cx="0" cy="0" r="1" gradientUnits="userSpaceOnUse" gradientTransform="translate(189.85 37.4161) scale(15.3427 15.4485)">
<stop stop-color="#E75219"/>
<stop offset="1" stop-color="#C84513"/>
</radialGradient>
<radialGradient id="paint7_radial_66_759" cx="0" cy="0" r="1" gradientUnits="userSpaceOnUse" gradientTransform="translate(156.055 44.9954) scale(19.4024 19.5362)">
<stop stop-color="#E7AC19"/>
<stop offset="1" stop-color="#D99215"/>
</radialGradient>
<radialGradient id="paint8_radial_66_759" cx="0" cy="0" r="1" gradientUnits="userSpaceOnUse" gradientTransform="translate(125.631 51.2741) scale(15.3427 15.4485)">
<stop stop-color="#D64B16"/>
<stop offset="1" stop-color="#B13F13"/>
</radialGradient>
<radialGradient id="paint9_radial_66_759" cx="0" cy="0" r="1" gradientUnits="userSpaceOnUse" gradientTransform="translate(189.923 37.1948) scale(15.3427 15.4485)">
<stop stop-color="#D64B16"/>
<stop offset="1" stop-color="#B13F13"/>
</radialGradient>
<radialGradient id="paint10_radial_66_759" cx="0" cy="0" r="1" gradientUnits="userSpaceOnUse" gradientTransform="translate(156.037 44.977) scale(19.4024 19.5362)">
<stop stop-color="#CF9A16"/>
<stop offset="1" stop-color="#D99215"/>
</radialGradient>
<linearGradient id="paint11_linear_66_759" x1="156.751" y1="38.5103" x2="148.918" y2="6.50018" gradientUnits="userSpaceOnUse">
<stop stop-color="#A69E97"/>
<stop offset="0.89" stop-color="#9B938D"/>
<stop offset="1" stop-color="#9B938D"/>
</linearGradient>
<radialGradient id="paint12_radial_66_759" cx="0" cy="0" r="1" gradientUnits="userSpaceOnUse" gradientTransform="translate(170.742 76.483) scale(36.6432 36.8959)">
<stop stop-color="#ADC81C"/>
<stop offset="0.2" stop-color="#ADC81C"/>
<stop offset="1" stop-color="#8BC81C"/>
</radialGradient>
<radialGradient id="paint13_radial_66_759" cx="0" cy="0" r="1" gradientUnits="userSpaceOnUse" gradientTransform="translate(172.896 78.8959) scale(36.6432 36.8959)">
<stop stop-color="#8ABD16"/>
<stop offset="0.2" stop-color="#8ABD16"/>
<stop offset="1" stop-color="#6BB812"/>
</radialGradient>
<clipPath id="clip0_66_759">
<rect width="142.4" height="91.68" fill="white" transform="translate(219 167)"/>
</clipPath>
<clipPath id="clip1_66_759">
<rect width="133" height="116" fill="white" transform="translate(100)"/>
</clipPath>
<clipPath id="clip2_66_759">
<rect width="131" height="126" fill="white" transform="translate(0 125)"/>
</clipPath>
</defs>
</svg>
