<svg width="32" height="32" viewBox="0 0 32 32" fill="none" xmlns="http://www.w3.org/2000/svg">
<mask id="mask0_8_1823" style="mask-type:alpha" maskUnits="userSpaceOnUse" x="0" y="0" width="32" height="32">
<rect width="32" height="32" fill="#D9D9D9"/>
</mask>
<g mask="url(#mask0_8_1823)">
<path d="M3.99999 19.3333C3.82222 19.3333 3.66666 19.2666 3.53333 19.1333C3.39999 19 3.33333 18.8444 3.33333 18.6666C3.33333 18.4889 3.39999 18.3333 3.53333 18.2C3.66666 18.0666 3.82222 18 3.99999 18C4.17777 18 4.33333 18.0666 4.46666 18.2C4.6 18.3333 4.66666 18.4889 4.66666 18.6666C4.66666 18.8444 4.6 19 4.46666 19.1333C4.33333 19.2666 4.17777 19.3333 3.99999 19.3333ZM3.99999 14C3.82222 14 3.66666 13.9333 3.53333 13.8C3.39999 13.6666 3.33333 13.5111 3.33333 13.3333C3.33333 13.1555 3.39999 13 3.53333 12.8666C3.66666 12.7333 3.82222 12.6666 3.99999 12.6666C4.17777 12.6666 4.33333 12.7333 4.46666 12.8666C4.6 13 4.66666 13.1555 4.66666 13.3333C4.66666 13.5111 4.6 13.6666 4.46666 13.8C4.33333 13.9333 4.17777 14 3.99999 14ZM8 25.3333C7.62222 25.3333 7.30555 25.2055 7.05 24.95C6.79444 24.6944 6.66666 24.3778 6.66666 24C6.66666 23.6222 6.79444 23.3055 7.05 23.05C7.30555 22.7944 7.62222 22.6666 8 22.6666C8.37777 22.6666 8.69444 22.7944 8.95 23.05C9.20555 23.3055 9.33333 23.6222 9.33333 24C9.33333 24.3778 9.20555 24.6944 8.95 24.95C8.69444 25.2055 8.37777 25.3333 8 25.3333ZM8 20C7.62222 20 7.30555 19.8722 7.05 19.6166C6.79444 19.3611 6.66666 19.0444 6.66666 18.6666C6.66666 18.2889 6.79444 17.9722 7.05 17.7166C7.30555 17.4611 7.62222 17.3333 8 17.3333C8.37777 17.3333 8.69444 17.4611 8.95 17.7166C9.20555 17.9722 9.33333 18.2889 9.33333 18.6666C9.33333 19.0444 9.20555 19.3611 8.95 19.6166C8.69444 19.8722 8.37777 20 8 20ZM8 14.6666C7.62222 14.6666 7.30555 14.5389 7.05 14.2833C6.79444 14.0278 6.66666 13.7111 6.66666 13.3333C6.66666 12.9555 6.79444 12.6389 7.05 12.3833C7.30555 12.1278 7.62222 12 8 12C8.37777 12 8.69444 12.1278 8.95 12.3833C9.20555 12.6389 9.33333 12.9555 9.33333 13.3333C9.33333 13.7111 9.20555 14.0278 8.95 14.2833C8.69444 14.5389 8.37777 14.6666 8 14.6666ZM8 9.33331C7.62222 9.33331 7.30555 9.20554 7.05 8.94998C6.79444 8.69442 6.66666 8.37776 6.66666 7.99998C6.66666 7.6222 6.79444 7.30554 7.05 7.04998C7.30555 6.79442 7.62222 6.66665 8 6.66665C8.37777 6.66665 8.69444 6.79442 8.95 7.04998C9.20555 7.30554 9.33333 7.6222 9.33333 7.99998C9.33333 8.37776 9.20555 8.69442 8.95 8.94998C8.69444 9.20554 8.37777 9.33331 8 9.33331ZM13.3333 20.6666C12.7778 20.6666 12.3056 20.4722 11.9167 20.0833C11.5278 19.6944 11.3333 19.2222 11.3333 18.6666C11.3333 18.1111 11.5278 17.6389 11.9167 17.25C12.3056 16.8611 12.7778 16.6666 13.3333 16.6666C13.8889 16.6666 14.3611 16.8611 14.75 17.25C15.1389 17.6389 15.3333 18.1111 15.3333 18.6666C15.3333 19.2222 15.1389 19.6944 14.75 20.0833C14.3611 20.4722 13.8889 20.6666 13.3333 20.6666ZM13.3333 15.3333C12.7778 15.3333 12.3056 15.1389 11.9167 14.75C11.5278 14.3611 11.3333 13.8889 11.3333 13.3333C11.3333 12.7778 11.5278 12.3055 11.9167 11.9166C12.3056 11.5278 12.7778 11.3333 13.3333 11.3333C13.8889 11.3333 14.3611 11.5278 14.75 11.9166C15.1389 12.3055 15.3333 12.7778 15.3333 13.3333C15.3333 13.8889 15.1389 14.3611 14.75 14.75C14.3611 15.1389 13.8889 15.3333 13.3333 15.3333ZM13.3333 25.3333C12.9556 25.3333 12.6389 25.2055 12.3833 24.95C12.1278 24.6944 12 24.3778 12 24C12 23.6222 12.1278 23.3055 12.3833 23.05C12.6389 22.7944 12.9556 22.6666 13.3333 22.6666C13.7111 22.6666 14.0278 22.7944 14.2833 23.05C14.5389 23.3055 14.6667 23.6222 14.6667 24C14.6667 24.3778 14.5389 24.6944 14.2833 24.95C14.0278 25.2055 13.7111 25.3333 13.3333 25.3333ZM13.3333 9.33331C12.9556 9.33331 12.6389 9.20554 12.3833 8.94998C12.1278 8.69442 12 8.37776 12 7.99998C12 7.6222 12.1278 7.30554 12.3833 7.04998C12.6389 6.79442 12.9556 6.66665 13.3333 6.66665C13.7111 6.66665 14.0278 6.79442 14.2833 7.04998C14.5389 7.30554 14.6667 7.6222 14.6667 7.99998C14.6667 8.37776 14.5389 8.69442 14.2833 8.94998C14.0278 9.20554 13.7111 9.33331 13.3333 9.33331ZM13.3333 28.6666C13.1556 28.6666 13 28.6 12.8667 28.4666C12.7333 28.3333 12.6667 28.1778 12.6667 28C12.6667 27.8222 12.7333 27.6666 12.8667 27.5333C13 27.4 13.1556 27.3333 13.3333 27.3333C13.5111 27.3333 13.6667 27.4 13.8 27.5333C13.9333 27.6666 14 27.8222 14 28C14 28.1778 13.9333 28.3333 13.8 28.4666C13.6667 28.6 13.5111 28.6666 13.3333 28.6666ZM13.3333 4.66665C13.1556 4.66665 13 4.59998 12.8667 4.46665C12.7333 4.33331 12.6667 4.17776 12.6667 3.99998C12.6667 3.8222 12.7333 3.66665 12.8667 3.53331C13 3.39998 13.1556 3.33331 13.3333 3.33331C13.5111 3.33331 13.6667 3.39998 13.8 3.53331C13.9333 3.66665 14 3.8222 14 3.99998C14 4.17776 13.9333 4.33331 13.8 4.46665C13.6667 4.59998 13.5111 4.66665 13.3333 4.66665ZM18.6667 20.6666C18.1111 20.6666 17.6389 20.4722 17.25 20.0833C16.8611 19.6944 16.6667 19.2222 16.6667 18.6666C16.6667 18.1111 16.8611 17.6389 17.25 17.25C17.6389 16.8611 18.1111 16.6666 18.6667 16.6666C19.2222 16.6666 19.6944 16.8611 20.0833 17.25C20.4722 17.6389 20.6667 18.1111 20.6667 18.6666C20.6667 19.2222 20.4722 19.6944 20.0833 20.0833C19.6944 20.4722 19.2222 20.6666 18.6667 20.6666ZM18.6667 15.3333C18.1111 15.3333 17.6389 15.1389 17.25 14.75C16.8611 14.3611 16.6667 13.8889 16.6667 13.3333C16.6667 12.7778 16.8611 12.3055 17.25 11.9166C17.6389 11.5278 18.1111 11.3333 18.6667 11.3333C19.2222 11.3333 19.6944 11.5278 20.0833 11.9166C20.4722 12.3055 20.6667 12.7778 20.6667 13.3333C20.6667 13.8889 20.4722 14.3611 20.0833 14.75C19.6944 15.1389 19.2222 15.3333 18.6667 15.3333ZM18.6667 25.3333C18.2889 25.3333 17.9722 25.2055 17.7167 24.95C17.4611 24.6944 17.3333 24.3778 17.3333 24C17.3333 23.6222 17.4611 23.3055 17.7167 23.05C17.9722 22.7944 18.2889 22.6666 18.6667 22.6666C19.0444 22.6666 19.3611 22.7944 19.6167 23.05C19.8722 23.3055 20 23.6222 20 24C20 24.3778 19.8722 24.6944 19.6167 24.95C19.3611 25.2055 19.0444 25.3333 18.6667 25.3333ZM18.6667 9.33331C18.2889 9.33331 17.9722 9.20554 17.7167 8.94998C17.4611 8.69442 17.3333 8.37776 17.3333 7.99998C17.3333 7.6222 17.4611 7.30554 17.7167 7.04998C17.9722 6.79442 18.2889 6.66665 18.6667 6.66665C19.0444 6.66665 19.3611 6.79442 19.6167 7.04998C19.8722 7.30554 20 7.6222 20 7.99998C20 8.37776 19.8722 8.69442 19.6167 8.94998C19.3611 9.20554 19.0444 9.33331 18.6667 9.33331ZM18.6667 28.6666C18.4889 28.6666 18.3333 28.6 18.2 28.4666C18.0667 28.3333 18 28.1778 18 28C18 27.8222 18.0667 27.6666 18.2 27.5333C18.3333 27.4 18.4889 27.3333 18.6667 27.3333C18.8444 27.3333 19 27.4 19.1333 27.5333C19.2667 27.6666 19.3333 27.8222 19.3333 28C19.3333 28.1778 19.2667 28.3333 19.1333 28.4666C19 28.6 18.8444 28.6666 18.6667 28.6666ZM18.6667 4.66665C18.4889 4.66665 18.3333 4.59998 18.2 4.46665C18.0667 4.33331 18 4.17776 18 3.99998C18 3.8222 18.0667 3.66665 18.2 3.53331C18.3333 3.39998 18.4889 3.33331 18.6667 3.33331C18.8444 3.33331 19 3.39998 19.1333 3.53331C19.2667 3.66665 19.3333 3.8222 19.3333 3.99998C19.3333 4.17776 19.2667 4.33331 19.1333 4.46665C19 4.59998 18.8444 4.66665 18.6667 4.66665ZM24 25.3333C23.6222 25.3333 23.3056 25.2055 23.05 24.95C22.7944 24.6944 22.6667 24.3778 22.6667 24C22.6667 23.6222 22.7944 23.3055 23.05 23.05C23.3056 22.7944 23.6222 22.6666 24 22.6666C24.3778 22.6666 24.6944 22.7944 24.95 23.05C25.2056 23.3055 25.3333 23.6222 25.3333 24C25.3333 24.3778 25.2056 24.6944 24.95 24.95C24.6944 25.2055 24.3778 25.3333 24 25.3333ZM24 20C23.6222 20 23.3056 19.8722 23.05 19.6166C22.7944 19.3611 22.6667 19.0444 22.6667 18.6666C22.6667 18.2889 22.7944 17.9722 23.05 17.7166C23.3056 17.4611 23.6222 17.3333 24 17.3333C24.3778 17.3333 24.6944 17.4611 24.95 17.7166C25.2056 17.9722 25.3333 18.2889 25.3333 18.6666C25.3333 19.0444 25.2056 19.3611 24.95 19.6166C24.6944 19.8722 24.3778 20 24 20ZM24 14.6666C23.6222 14.6666 23.3056 14.5389 23.05 14.2833C22.7944 14.0278 22.6667 13.7111 22.6667 13.3333C22.6667 12.9555 22.7944 12.6389 23.05 12.3833C23.3056 12.1278 23.6222 12 24 12C24.3778 12 24.6944 12.1278 24.95 12.3833C25.2056 12.6389 25.3333 12.9555 25.3333 13.3333C25.3333 13.7111 25.2056 14.0278 24.95 14.2833C24.6944 14.5389 24.3778 14.6666 24 14.6666ZM24 9.33331C23.6222 9.33331 23.3056 9.20554 23.05 8.94998C22.7944 8.69442 22.6667 8.37776 22.6667 7.99998C22.6667 7.6222 22.7944 7.30554 23.05 7.04998C23.3056 6.79442 23.6222 6.66665 24 6.66665C24.3778 6.66665 24.6944 6.79442 24.95 7.04998C25.2056 7.30554 25.3333 7.6222 25.3333 7.99998C25.3333 8.37776 25.2056 8.69442 24.95 8.94998C24.6944 9.20554 24.3778 9.33331 24 9.33331ZM28 19.3333C27.8222 19.3333 27.6667 19.2666 27.5333 19.1333C27.4 19 27.3333 18.8444 27.3333 18.6666C27.3333 18.4889 27.4 18.3333 27.5333 18.2C27.6667 18.0666 27.8222 18 28 18C28.1778 18 28.3333 18.0666 28.4667 18.2C28.6 18.3333 28.6667 18.4889 28.6667 18.6666C28.6667 18.8444 28.6 19 28.4667 19.1333C28.3333 19.2666 28.1778 19.3333 28 19.3333ZM28 14C27.8222 14 27.6667 13.9333 27.5333 13.8C27.4 13.6666 27.3333 13.5111 27.3333 13.3333C27.3333 13.1555 27.4 13 27.5333 12.8666C27.6667 12.7333 27.8222 12.6666 28 12.6666C28.1778 12.6666 28.3333 12.7333 28.4667 12.8666C28.6 13 28.6667 13.1555 28.6667 13.3333C28.6667 13.5111 28.6 13.6666 28.4667 13.8C28.3333 13.9333 28.1778 14 28 14Z" fill="#EFEFC8"/>
</g>
</svg>
