<?xml version="1.0" encoding="UTF-8"?>
<svg id="Layer_1" data-name="Layer 1" xmlns="http://www.w3.org/2000/svg" viewBox="0 0 31.05 28.96">
  <defs>
    <style>
      .cls-1 {
        fill: none;
        stroke: #e6ecb8;
        stroke-miterlimit: 10;
        stroke-width: 4.5px;
      }

      .cls-2 {
        fill: #e6ecb8;
      }
    </style>
  </defs>
  <path class="cls-1" d="M4.5,23.72l-2.21-2.21-.04-17.54,3.18-1.31,4.2,4.22,.05-.05h11.71l.05,.05,4.2-4.22,3.18,1.31-.04,17.54-2.21,2.21-7.38,2.41c-2.37,.77-4.93,.77-7.3,0l-7.38-2.41Z"/>
  <path class="cls-2" d="M14.83,13.88v5.87c-.44,0-.8,.36-.8,.8h-.22c0-.44-.36-.8-.8-.8v-5.87c.44,0,.8-.36,.8-.8h.22c0,.44,.36,.8,.8,.8Z"/>
  <path class="cls-2" d="M18.98,13.88v5.87c-.44,0-.8,.36-.8,.8h-.22c0-.44-.36-.8-.8-.8v-5.87c.44,0,.8-.36,.8-.8h.22c0,.44,.36,.8,.8,.8Z"/>
</svg>