<svg width="35" height="42" viewBox="0 0 35 42" fill="none" xmlns="http://www.w3.org/2000/svg">
<mask id="mask0_13_307" style="mask-type:luminance" maskUnits="userSpaceOnUse" x="2" y="11" width="6" height="7">
<path d="M5.10775 17.6275C6.69943 17.6275 7.98975 16.3347 7.98975 14.74C7.98975 13.1452 6.69943 11.8524 5.10775 11.8524C3.51606 11.8524 2.22575 13.1452 2.22575 14.74C2.22575 16.3347 3.51606 17.6275 5.10775 17.6275Z" fill="white"/>
</mask>
<g mask="url(#mask0_13_307)">
<path d="M7.95501 12.8615L6.40984 15.1924L9.36129 15.2967L7.95501 12.8615Z" fill="#F1F2CF"/>
<path d="M6.4272 15.1923L8.9967 16.7752L9.36129 15.2966L6.40984 15.1923H6.4272Z" fill="#F0F1CD"/>
<path d="M6.42722 15.1923L7.4689 17.6276L9.01407 16.7579L6.44458 15.1749L6.42722 15.1923Z" fill="#F0F1CD"/>
<path d="M6.23624 13.3659L6.42722 15.1924L7.97239 12.8615L6.25361 13.3659H6.23624Z" fill="#F1F2D2"/>
<path d="M6.04525 11.522L6.23623 13.3658L7.95501 12.8614L6.04525 11.522Z" fill="#F2F3D4"/>
<path d="M6.42721 15.1923L4.29175 16.2186L7.46889 17.6275L6.42721 15.1923Z" fill="#F1F2CF"/>
<path d="M4.29175 16.2186L5.94109 18.967L7.46889 17.6276L4.29175 16.2186Z" fill="#F0F1CE"/>
<path d="M4.29175 16.2186L4.06605 18.8453L5.94108 18.967L4.29175 16.2186Z" fill="#F0F1CE"/>
<path d="M6.23623 13.3658L4.48272 14.4617L6.4272 15.1923L6.23623 13.3658Z" fill="#F1F2D2"/>
<path d="M6.04526 11.522L4.03133 13.0005L6.23624 13.3658L6.04526 11.522Z" fill="#F2F3D5"/>
<path d="M4.48272 14.4617L4.29175 16.2186L6.42721 15.1923L4.48272 14.4617Z" fill="#F1F2D1"/>
<path d="M4.03131 13.0006L4.46534 14.4618L6.21885 13.3659L4.01395 13.0006H4.03131Z" fill="#F2F3D4"/>
<path d="M3.51048 11.2263L4.03132 13.0006L6.04525 11.522L3.51048 11.2263Z" fill="#F3F4D7"/>
<path d="M3.16325 16.8274L4.06605 18.8453L4.29175 16.2186L3.16325 16.8274Z" fill="#F1F2D0"/>
<path d="M4.03133 13.0006L3.64938 13.4181L4.46536 14.4618L4.03133 13.0006Z" fill="#F2F3D4"/>
<path d="M2.191 15.1923L4.27437 16.2186L4.46535 14.4617L2.17364 15.1923H2.191Z" fill="#F1F2D2"/>
<path d="M3.16325 16.8274L2.5556 18.3233L4.06605 18.8452L3.16325 16.8274Z" fill="#F1F2CF"/>
<path d="M3.66673 13.4181L2.20837 15.1924L4.50008 14.4618L3.68409 13.4181H3.66673Z" fill="#F2F3D3"/>
<path d="M2.19101 15.1923L3.16325 16.8274L4.29175 16.2186L2.20837 15.1923H2.19101Z" fill="#F1F2D1"/>
<path d="M3.51048 11.2263L1.58336 11.6438L3.64937 13.4181L3.51048 11.2263Z" fill="#F3F4D8"/>
<path d="M3.51048 11.2263L3.64937 13.4181L4.03132 13.0006L3.51048 11.2263Z" fill="#F3F4D6"/>
<path d="M1.34031 13.2789L2.19102 15.1924L3.64938 13.4181L1.32294 13.2789H1.34031Z" fill="#F2F3D5"/>
<path d="M1.58335 11.6438L1.34029 13.2789L3.66672 13.4181L1.60071 11.6438H1.58335Z" fill="#F3F4D7"/>
<path d="M0.315964 17.2797L2.55559 18.3233L3.16324 16.8274L0.315964 17.2797Z" fill="#F1F2D1"/>
<path d="M2.191 15.1923L0.315964 17.2796L3.16324 16.8274L2.191 15.1923Z" fill="#F2F3D3"/>
</g>
<mask id="mask1_13_307" style="mask-type:luminance" maskUnits="userSpaceOnUse" x="0" y="0" width="35" height="42">
<path d="M34.3444 17.8711L34.0319 10.0956L34.0493 10.0782L33.7541 8.25175L31.9138 6.59924L30.82 6.14698L30.2992 4.58144L30.5943 2.72019L29.9346 0.876336L28.4068 0.180542L26.9137 0.580624L25.3859 2.25053L25.8199 2.91153L25.8547 4.00741L26.1324 4.23354L26.1672 5.20765L26.4623 5.41639L26.7227 6.49487L27.504 6.58185L28.2679 6.51227L26.497 7.50377L25.8547 8.30394L25.2297 10.5653L24.7088 12.6353L22.6428 14.1138L20.8372 13.8703L17.6427 13.9921L15.6114 13.8703L13.5628 14.914L12.0176 15.5924L6.13205 19.628L5.5244 19.4018L4.27437 19.628L2.43406 19.7671L1.07987 20.0976L0.923615 20.6891L2.03475 21.7154L3.00699 21.8197L4.70841 21.4892L7.12165 21.8197L7.8682 20.0803L11.6704 19.054L14.9169 16.984L15.5072 16.8622L17.5212 17.2971L18.7017 19.054L22.174 19.4018L22.7817 19.9933L22.6081 23.5418L24.0143 25.8901L23.7886 29.3691L24.2921 31.613L24.1012 33.4221L24.2921 36.7967L23.8928 38.0491L23.7713 38.7797L23.7539 39.7538L24.2921 40.554L25.5248 41.3542L26.9137 41.2672V40.5888L25.7679 39.0928L25.247 37.8056L25.5595 36.1531L26.7054 32.8133L26.688 30.9694L26.4623 29.056L26.7054 27.2295L27.4519 24.7595L27.6429 22.8982L28.6325 22.0111L28.563 19.7845L28.9276 18.7756L30.6117 16.236L31.9485 14.6878L32.3478 17.3319L31.5666 20.4803L30.5249 24.6203L31.1325 26.1511L32.9555 25.4031L32.5388 22.846L34.3444 17.8711Z" fill="white"/>
</mask>
<g mask="url(#mask1_13_307)">
<path d="M27.7991 41.7716L27.6255 36.6749L23.2678 39.3537L27.8165 41.789L27.7991 41.7716Z" fill="#F1F2CF"/>
<path d="M27.7992 41.7716L23.2505 39.3363L24.6047 41.9803L27.7992 41.7716Z" fill="#F1F2D1"/>
<path d="M23.2505 39.3364L27.6082 36.6576L24.188 36.3445L23.2331 39.3364H23.2505Z" fill="#F1F2D2"/>
<path d="M27.6082 36.6751L26.2366 33.3179L24.2053 36.362L27.6256 36.6751H27.6082Z" fill="#F1F2D2"/>
<path d="M24.2053 36.3617L23.5109 32.5522L22.8685 36.24L24.188 36.3617H24.2053Z" fill="#F2F3D5"/>
<path d="M27.6082 36.675L29.5353 32.9698L26.2366 33.3004L27.6082 36.6576V36.675Z" fill="#F1F2D1"/>
<path d="M24.2053 36.3617L26.2366 33.3176L23.5109 32.5522L24.2053 36.3617Z" fill="#F2F3D4"/>
<path d="M26.2366 33.3003L24.2921 31.8739L23.5109 32.5349L26.2366 33.3003Z" fill="#F2F3D4"/>
<path d="M26.2366 33.3003L29.5353 32.9698L27.6082 29.3517L26.2366 33.3177V33.3003Z" fill="#F1F2D2"/>
<path d="M26.2366 33.3003L27.6082 29.3342L24.2922 31.8739L26.2366 33.3003Z" fill="#F2F3D3"/>
<path d="M24.3095 31.8914L27.6255 29.3517L24.0491 27.8732L24.3095 31.8914Z" fill="#F2F3D5"/>
<path d="M24.3095 31.8914L24.0491 27.4557L22.4171 27.8732L24.3095 31.8914Z" fill="#F3F4D7"/>
<path d="M27.6082 29.3517L26.6186 26.3424L24.0317 27.8732L27.6082 29.3517Z" fill="#F3F3D6"/>
<path d="M27.6082 29.3517L30.0388 25.2291L26.6186 26.3424L27.6082 29.3517Z" fill="#F2F3D5"/>
<path d="M24.0317 27.8731L26.6186 26.3423L22.2609 24.0984L24.0317 27.8731Z" fill="#F3F4D8"/>
<path d="M34.5701 26.5511L34.7958 19.541L32.834 23.7854L34.5701 26.5511Z" fill="#F2F3D4"/>
<path d="M34.5701 26.5512L32.834 23.7854L31.5145 26.0989L34.5701 26.5512Z" fill="#F2F3D3"/>
<path d="M26.6186 26.3424L30.0388 25.2292L27.4519 22.3938L26.6186 26.3598V26.3424Z" fill="#F3F4D7"/>
<path d="M26.6186 26.3424L27.4519 22.3763L22.2609 24.0984L26.6186 26.3424Z" fill="#F3F4D9"/>
<path d="M22.2609 24.0984L27.4519 22.3763L23.1463 21.6458L22.2609 24.0984Z" fill="#F4F5DB"/>
<path d="M31.5145 26.0989L32.834 23.7854L30.0388 25.2292L31.5145 26.0989Z" fill="#F2F3D5"/>
<path d="M30.0388 25.2117L32.834 23.7679L30.4902 20.4629L30.0388 25.2117Z" fill="#F3F4D6"/>
<path d="M30.0388 25.2117L30.4902 20.4629L27.4693 22.3763L30.0562 25.2117H30.0388Z" fill="#F3F4D8"/>
<path d="M34.7785 19.541L34.1361 9.79993L33.2506 13.3137L34.7785 19.541Z" fill="#F4F5DA"/>
<path d="M27.4519 22.3764L26.445 20.5847L23.1463 21.6458L27.4519 22.3764Z" fill="#F4F5DB"/>
<path d="M11.3405 24.029L9.95159 19.1932L7.36473 22.7592L11.3405 24.029Z" fill="#F8F9E9"/>
<path d="M22.2609 24.0985L23.1463 21.6458L19.3962 21.5588L22.2609 24.0985Z" fill="#F5F6DE"/>
<path d="M4.67371 24.2029L3.73619 19.8716L1.98268 24.0116L4.67371 24.2029Z" fill="#FAFAED"/>
<path d="M4.6737 24.2029L7.36472 22.7417L3.75354 19.8716L4.69106 24.2029H4.6737Z" fill="#F9FAEC"/>
<path d="M11.3405 24.029L13.0419 20.7588L9.95158 19.1932L11.3405 24.029Z" fill="#F8F8E8"/>
<path d="M1.98268 24.0289L3.73618 19.8889H0.645844L1.98268 24.0289Z" fill="#FAFAEF"/>
<path d="M32.834 23.7854L34.7958 19.541L30.4902 20.4803L32.834 23.7854Z" fill="#F3F4D7"/>
<path d="M7.36472 22.7417L5.42024 18.3234L3.73618 19.8541L7.34736 22.7243L7.36472 22.7417Z" fill="#FAFAED"/>
<path d="M7.36472 22.7416L9.95157 19.1757L5.42023 18.3407L7.36472 22.759V22.7416Z" fill="#F9FAEC"/>
<path d="M27.4519 22.3763L30.4728 20.4629L26.4276 20.5673L27.4346 22.3589L27.4519 22.3763Z" fill="#F4F5DA"/>
<path d="M23.1463 21.6458L26.445 20.5847L26.2713 18.4277L23.1636 21.6458H23.1463Z" fill="#F5F5DC"/>
<path d="M23.1463 21.6458L26.254 18.4278L22.0352 17.7842L23.1463 21.6284V21.6458Z" fill="#F5F6DE"/>
<path d="M23.1463 21.6458L22.0352 17.8015L19.3962 21.5588L23.1463 21.6458Z" fill="#F6F6E0"/>
<path d="M26.445 20.5846L30.4902 20.4803L26.2713 18.4451L26.445 20.602V20.5846Z" fill="#F4F5DB"/>
<path d="M19.3962 21.5587L21.2018 16.5664L16.2191 19.854L19.4136 21.5587H19.3962Z" fill="#F6F7E3"/>
<path d="M19.3962 21.5587L22.0352 17.8014L21.1845 16.5664L19.3789 21.5587H19.3962Z" fill="#F6F7E1"/>
<path d="M34.7785 19.541L33.2507 13.3136L33.025 16.9491L34.7785 19.5236V19.541Z" fill="#F4F4D9"/>
<path d="M16.2017 19.8541L16.8441 16.5839L11.3058 16.0099L16.2017 19.8541Z" fill="#F8F8E7"/>
<path d="M16.2017 19.854L21.1845 16.5664H16.8441L16.2017 19.854Z" fill="#F7F8E5"/>
<path d="M30.4902 20.4629L29.5353 17.0013L26.2713 18.4277L30.4902 20.4629Z" fill="#F4F5DB"/>
<path d="M30.4902 20.463L34.7958 19.5237L33.0423 16.9492L30.4902 20.463Z" fill="#F3F4D8"/>
<path d="M13.0246 20.7587L16.2017 19.8541L11.3058 16.0099L13.0246 20.7587Z" fill="#F8F8E7"/>
<path d="M13.0246 20.7587L11.3058 16.0099L10.3509 17.7146L13.0246 20.7587Z" fill="#F8F9E9"/>
<path d="M13.0246 20.7587L10.3509 17.7146L9.93422 19.1932L13.0246 20.7587Z" fill="#F8F9E9"/>
<path d="M16.8441 16.5839L13.5801 14.7922L11.3231 16.0099L16.8614 16.5839H16.8441Z" fill="#F8F9E9"/>
<path d="M30.4902 20.463L33.0423 16.9492L29.5527 17.0014L30.5075 20.463H30.4902Z" fill="#F4F5DA"/>
<path d="M9.93421 19.1758L10.7502 16.4448L5.42023 18.3409L9.95157 19.1758H9.93421Z" fill="#F9FAEC"/>
<path d="M22.0352 17.8016L25.629 14.2704L24.4658 13.8008L22.0352 17.8016Z" fill="#F6F6E1"/>
<path d="M26.254 18.4278L25.629 14.2531L22.0352 17.7842L26.254 18.4278Z" fill="#F5F6DF"/>
<path d="M26.254 18.4278L29.5179 17.0014L25.6116 14.2531L26.2366 18.4278H26.254Z" fill="#F5F6DE"/>
<path d="M16.8441 16.5839L15.733 14.6531L13.5801 14.7922L16.8441 16.5839Z" fill="#F8F9E8"/>
<path d="M10.3683 17.6971L11.3231 15.9924L8.89253 13.7311L10.3683 17.6971Z" fill="#F9FAEC"/>
<path d="M22.0351 17.8016L24.4658 13.8008L21.2018 16.5666L22.0525 17.8016H22.0351Z" fill="#F6F7E2"/>
<path d="M16.8441 16.5838H21.1844L19.6219 12.4438L16.8267 16.5838H16.8441Z" fill="#F7F8E5"/>
<path d="M16.8441 16.5838L19.6393 12.4438L15.7329 14.6704L16.8441 16.6012V16.5838Z" fill="#F8F8E7"/>
<path d="M29.5353 17.0188L29.2749 12.5483L25.6463 14.2704L29.5527 17.0188H29.5353Z" fill="#F5F6DF"/>
<path d="M29.5353 17.0188L33.025 16.9666L33.2507 13.3311L29.5353 17.0362V17.0188Z" fill="#F4F5DC"/>
<path d="M29.5353 17.0188L33.2507 13.3137L29.2749 12.5483L29.5353 17.0188Z" fill="#F5F5DD"/>
<path d="M21.1844 16.5664L24.4484 13.8006L19.6219 12.4438L21.1844 16.5664Z" fill="#F7F7E3"/>
<path d="M11.3231 16.0099L13.5801 14.7922L8.89253 13.7485L11.3231 16.0099Z" fill="#F9FAEC"/>
<path d="M24.4658 13.8007L23.5977 10.2695L19.6393 12.4439L24.4658 13.8007Z" fill="#F7F7E4"/>
<path d="M15.7329 14.6531L19.6393 12.4266L17.6948 11.0524L15.7329 14.6531Z" fill="#F8F8E8"/>
<path d="M15.7329 14.653L17.6948 11.0523L11.4273 10.4783L15.7329 14.6704V14.653Z" fill="#F9F9EA"/>
<path d="M13.5801 14.7923L15.7329 14.6531L11.4273 10.4609L13.5628 14.7749L13.5801 14.7923Z" fill="#F9F9EB"/>
<path d="M13.5801 14.7922L11.4447 10.4783L8.89253 13.7485L13.5801 14.7922Z" fill="#F9FAED"/>
<path d="M25.629 14.2705L25.4901 9.08679L24.4658 13.8008L25.629 14.2705Z" fill="#F6F7E2"/>
<path d="M25.629 14.2705L29.2575 12.5484L25.4727 9.08679L25.6116 14.2705H25.629Z" fill="#F6F7E1"/>
<path d="M24.4658 13.8008L25.4901 9.08679L23.5977 10.2696L24.4658 13.8008Z" fill="#F7F7E4"/>
<path d="M33.2507 13.3137L29.4311 9.57385L29.2749 12.5484L33.2507 13.3137Z" fill="#F5F6DF"/>
<path d="M29.2749 12.5484L29.4311 9.57385L25.4901 9.08679L29.2749 12.5484Z" fill="#F6F7E2"/>
<path d="M33.2507 13.3137L34.1361 9.79998L29.4311 9.57385L33.2507 13.3137Z" fill="#F5F6DF"/>
<path d="M29.4311 9.57383L26.445 7.69519L25.4901 9.10417L29.4311 9.59123V9.57383Z" fill="#F7F7E3"/>
<path d="M34.1361 9.79983L33.6847 6.16431L29.4311 9.59109L34.1361 9.81722V9.79983Z" fill="#F6F6E0"/>
<path d="M29.4311 9.57382L33.6847 6.14703L29.4832 5.71216L29.4311 9.55642V9.57382Z" fill="#F6F7E2"/>
<path d="M29.4311 9.57375L29.4832 5.72949L26.4276 7.69511L29.4138 9.57375H29.4311Z" fill="#F7F7E3"/>
<path d="M25.4901 9.08671L26.445 7.67773L24.9519 7.36462L25.4901 9.08671Z" fill="#F7F8E5"/>
<path d="M26.445 7.69509L29.5006 5.72947L27.4346 3.46814L26.445 7.69509Z" fill="#F7F8E5"/>
<path d="M26.445 7.69516L24.0491 4.94678L24.9519 7.38206L26.445 7.69516Z" fill="#F8F8E6"/>
<path d="M26.445 7.69509L27.4346 3.46814L24.0491 4.9467L26.445 7.69509Z" fill="#F8F8E6"/>
<path d="M33.7021 6.16442L29.5874 4.73804L29.5006 5.72954L33.7021 6.16442Z" fill="#F7F7E3"/>
<path d="M29.5006 5.72947L29.5874 4.73796L27.4519 3.46814L29.5179 5.72947H29.5006Z" fill="#F7F8E5"/>
<path d="M33.7021 6.16433V2.59839L29.5874 4.72056L33.7021 6.14694V6.16433Z" fill="#F6F7E3"/>
<path d="M29.57 4.73799L33.7021 2.61582L31.3756 -0.0977783L29.5527 4.73799H29.57Z" fill="#F7F8E5"/>
<path d="M24.0317 4.94667L27.4172 3.46811L24.2921 0.163086L24.0317 4.94667Z" fill="#F8F9E9"/>
<path d="M29.57 4.738L27.3651 0.980713L27.4172 3.46818L29.5527 4.738H29.57Z" fill="#F8F8E6"/>
<path d="M29.57 4.73799L31.393 -0.0977783L27.3651 0.980702L29.57 4.73799Z" fill="#F8F8E6"/>
<path d="M27.4346 3.46811L27.3825 0.980643L24.3095 0.163086L27.4346 3.46811Z" fill="#F8F9E9"/>
<path d="M27.3651 0.98073L27.0353 -3.55933L24.2922 0.163172L27.3651 0.98073Z" fill="#F9F9EA"/>
<path d="M27.3651 0.98073L31.393 -0.0977509L27.0526 -3.55933L27.3825 0.98073H27.3651Z" fill="#F8F9E8"/>
</g>
<g style="mix-blend-mode:overlay">
<path d="M22.6428 14.1138L20.8372 13.8702L18.615 13.9572L17.5212 17.297L18.7018 19.0539L22.174 19.4018L22.7817 19.9932L22.6081 23.5418L24.0144 25.8901L27.4519 24.7594L27.8686 20.0802L28.3895 19.454L24.7262 16.636L22.6428 14.1138Z" fill="#FAFAEE"/>
</g>
<path opacity="0.54" d="M12.2433 15.488L12.9378 17.0188L13.7537 17.732L11.6704 19.054L7.86821 20.0803L7.59043 20.7239L6.32304 20.3934L6.13206 19.628L11.0627 16.2012L12.2433 15.488Z" fill="url(#paint0_linear_13_307)"/>
<path opacity="0.54" d="M26.688 30.9694L24.2921 31.613L24.1706 32.7262L24.1012 33.422L24.2921 36.7966L23.8928 38.0491L24.6567 38.136L25.247 37.8055L25.5595 36.24L26.7054 32.8132L26.688 30.9694Z" fill="url(#paint1_linear_13_307)"/>
<path opacity="0.54" d="M32.018 15.1227L34.2229 14.8618L34.0493 10.3565L33.7541 8.25175L32.4867 7.12108L31.9138 6.59924L30.82 6.14697L28.2679 6.51226L26.497 7.50377L25.8547 8.30393L24.7088 12.6353L22.6428 14.1138L24.7262 16.6361L28.3894 19.454L28.9276 18.7756L30.6117 16.236L31.9485 14.6878L32.018 15.1227Z" fill="url(#paint2_linear_13_307)"/>
<defs>
<linearGradient id="paint0_linear_13_307" x1="6.13206" y1="18.0973" x2="13.7537" y2="18.0973" gradientUnits="userSpaceOnUse">
<stop stop-color="#FBFEFA"/>
<stop offset="1" stop-color="white" stop-opacity="0"/>
</linearGradient>
<linearGradient id="paint1_linear_13_307" x1="25.2991" y1="38.136" x2="25.2991" y2="30.9694" gradientUnits="userSpaceOnUse">
<stop stop-color="#FBFEFA"/>
<stop offset="1" stop-color="white" stop-opacity="0"/>
</linearGradient>
<linearGradient id="paint2_linear_13_307" x1="28.4415" y1="19.454" x2="28.4415" y2="6.14697" gradientUnits="userSpaceOnUse">
<stop stop-color="#FBFEFA"/>
<stop offset="1" stop-color="white" stop-opacity="0"/>
</linearGradient>
</defs>
</svg>
