<svg width="77" height="72" viewBox="0 0 77 72" fill="none" xmlns="http://www.w3.org/2000/svg">
<g clip-path="url(#clip0_108_79)">
<path fill-rule="evenodd" clip-rule="evenodd" d="M14.7797 0.00170898L26.0737 11.3982H50.9042L62.1982 0.00170898L76.9744 6.11945L76.8738 55.8011L68.8216 63.8749L49.2379 70.2939C42.2339 72.5909 34.6778 72.5909 27.6738 70.2939L-23.9294 53.3797H0.0992107L0.00345993 6.11945L14.7797 0.00170898ZM14.1916 54.1045L31.1415 59.6603C35.8919 61.2181 41.0189 61.2184 45.7693 59.6605L62.8186 54.0722L65.7254 51.1576L65.8015 13.5975L64.8462 13.202L53.1282 25.0262L50.6944 22.5858H26.2836L23.8497 25.0262L12.1317 13.202L11.1765 13.5975L11.2526 51.1576L14.1916 54.1045Z" fill="#E6ECB8"/>
<path d="M36.7877 34.3164V49.3146C35.7934 49.3146 34.998 50.1121 34.998 51.109H34.07C34.07 50.1121 33.2746 49.3146 32.2803 49.3146V34.3164C33.2746 34.3164 34.07 33.5189 34.07 32.522H34.998C34.998 33.5189 35.7934 34.3164 36.7877 34.3164Z" fill="#E6ECB8"/>
<path d="M47.0617 34.3164V49.3146C46.0674 49.3146 45.272 50.1121 45.272 51.109H44.344C44.344 50.1121 43.5486 49.3146 42.5544 49.3146V34.3164C43.5486 34.3164 44.344 33.5189 44.344 32.522H45.272C45.272 33.5189 46.0674 34.3164 47.0617 34.3164Z" fill="#E6ECB8"/>
</g>
<defs>
<clipPath id="clip0_108_79">
<rect width="77" height="72" fill="white"/>
</clipPath>
</defs>
</svg>
